Dinish-Expanded.ufo
<glyph name="numbersign" format="2">
  <advance width="616"/>
  <unicode hex="0023"/>
  <outline>
    <contour>
      <point x="98" y="0" type="line"/>
      <point x="204" y="0" type="line"/>
      <point x="231" y="209" type="line"/>
      <point x="346" y="209" type="line"/>
      <point x="318" y="0" type="line"/>
      <point x="425" y="0" type="line"/>
      <point x="453" y="209" type="line"/>
      <point x="569" y="209" type="line"/>
      <point x="569" y="303" type="line"/>
      <point x="465" y="303" type="line"/>
      <point x="479" y="416" type="line"/>
      <point x="598" y="416" type="line"/>
      <point x="598" y="510" type="line"/>
      <point x="492" y="510" type="line"/>
      <point x="517" y="707" type="line"/>
      <point x="412" y="707" type="line"/>
      <point x="386" y="510" type="line"/>
      <point x="271" y="510" type="line"/>
      <point x="297" y="707" type="line"/>
      <point x="191" y="707" type="line"/>
      <point x="166" y="510" type="line"/>
      <point x="47" y="510" type="line"/>
      <point x="47" y="416" type="line"/>
      <point x="154" y="416" type="line"/>
      <point x="138" y="303" type="line"/>
      <point x="18" y="303" type="line"/>
      <point x="18" y="209" type="line"/>
      <point x="126" y="209" type="line"/>
    </contour>
    <contour>
      <point x="244" y="303" type="line"/>
      <point x="259" y="416" type="line"/>
      <point x="374" y="416" type="line"/>
      <point x="358" y="303" type="line"/>
    </contour>
  </outline>
</glyph>
<glyph name="percent" format="2">
  <advance width="993"/>
  <unicode hex="0025"/>
  <outline>
    <contour>
      <point x="218" y="0" type="line"/>
      <point x="322" y="0" type="line"/>
      <point x="776" y="712" type="line"/>
      <point x="672" y="712" type="line"/>
    </contour>
    <contour>
      <point x="195" y="270" type="curve" smooth="yes"/>
      <point x="297.667" y="270"/>
      <point x="349" y="326"/>
      <point x="349" y="438" type="curve" smooth="yes"/>
      <point x="349" y="553" type="line" smooth="yes"/>
      <point x="349" y="659.669"/>
      <point x="299" y="713"/>
      <point x="197" y="713" type="curve" smooth="yes"/>
      <point x="93.988" y="713"/>
      <point x="40" y="657.981"/>
      <point x="40" y="553" type="curve" smooth="yes"/>
      <point x="40" y="438" type="line" smooth="yes"/>
      <point x="40" y="326"/>
      <point x="91.667" y="270"/>
    </contour>
    <contour>
      <point x="196" y="361" type="curve" smooth="yes"/>
      <point x="158.374" y="361"/>
      <point x="146" y="381.293"/>
      <point x="146" y="443" type="curve" smooth="yes"/>
      <point x="146" y="540" type="line" smooth="yes"/>
      <point x="146" y="602.093"/>
      <point x="158.594" y="623"/>
      <point x="196" y="623" type="curve" smooth="yes"/>
      <point x="231.349" y="623"/>
      <point x="244" y="601.125"/>
      <point x="244" y="540" type="curve" smooth="yes"/>
      <point x="244" y="443" type="line" smooth="yes"/>
      <point x="244" y="383.611"/>
      <point x="230.764" y="361"/>
    </contour>
    <contour>
      <point x="798.814" y="-7.10745" type="curve" smooth="yes"/>
      <point x="901.481" y="-7.10745"/>
      <point x="952.814" y="48.8925"/>
      <point x="952.814" y="160.893" type="curve" smooth="yes"/>
      <point x="952.814" y="275.893" type="line" smooth="yes"/>
      <point x="952.814" y="382.562"/>
      <point x="902.814" y="435.893"/>
      <point x="800.814" y="435.893" type="curve" smooth="yes"/>
      <point x="697.802" y="435.893"/>
      <point x="643.814" y="380.874"/>
      <point x="643.814" y="275.893" type="curve" smooth="yes"/>
      <point x="643.814" y="160.893" type="line" smooth="yes"/>
      <point x="643.814" y="48.8925"/>
      <point x="695.481" y="-7.10745"/>
    </contour>
    <contour>
      <point x="799.814" y="83.8925" type="curve" smooth="yes"/>
      <point x="762.188" y="83.8925"/>
      <point x="749.814" y="104.186"/>
      <point x="749.814" y="165.893" type="curve" smooth="yes"/>
      <point x="749.814" y="262.893" type="line" smooth="yes"/>
      <point x="749.814" y="324.986"/>
      <point x="762.408" y="345.893"/>
      <point x="799.814" y="345.893" type="curve" smooth="yes"/>
      <point x="835.163" y="345.893"/>
      <point x="847.814" y="324.018"/>
      <point x="847.814" y="262.893" type="curve" smooth="yes"/>
      <point x="847.814" y="165.893" type="line" smooth="yes"/>
      <point x="847.814" y="106.504"/>
      <point x="834.578" y="83.8925"/>
    </contour>
  </outline>
</glyph>
<glyph name="parenleft" format="2">
  <advance width="330"/>
  <unicode hex="0028"/>
  <outline>
    <contour>
      <point x="284" y="-86" type="line"/>
      <point x="211.324" y="35.567"/>
      <point x="173" y="181.267"/>
      <point x="173" y="336" type="curve" smooth="yes"/>
      <point x="173" y="489.488"/>
      <point x="211.741" y="635.457"/>
      <point x="285" y="758" type="curve"/>
      <point x="191" y="758" type="line"/>
      <point x="96.166" y="640.459"/>
      <point x="47" y="496.718"/>
      <point x="47" y="337" type="curve" smooth="yes"/>
      <point x="47" y="181.167"/>
      <point x="96.014" y="36.182"/>
      <point x="190" y="-86" type="curve"/>
    </contour>
  </outline>
</glyph>
<glyph name="parenright" format="2">
  <advance width="330"/>
  <unicode hex="0029"/>
  <outline>
    <contour>
      <point x="141" y="-86" type="line"/>
      <point x="235.843" y="35.559"/>
      <point x="285" y="179.958"/>
      <point x="285" y="337" type="curve" smooth="yes"/>
      <point x="285" y="494.43"/>
      <point x="235.416" y="638.394"/>
      <point x="140" y="758" type="curve"/>
      <point x="47" y="758" type="line"/>
      <point x="120.259" y="635.457"/>
      <point x="159" y="489.488"/>
      <point x="159" y="336" type="curve" smooth="yes"/>
      <point x="159" y="185.279"/>
      <point x="120.018" y="38.402"/>
      <point x="47" y="-86" type="curve"/>
    </contour>
  </outline>
</glyph>
<glyph name="asterisk" format="2">
  <advance width="423"/>
  <unicode hex="002A"/>
  <outline>
    <contour>
      <point x="77" y="452" type="line"/>
      <point x="177" y="503" type="line"/>
      <point x="177" y="398" type="line"/>
      <point x="248" y="398" type="line"/>
      <point x="248" y="502" type="line"/>
      <point x="347" y="452" type="line"/>
      <point x="378" y="507" type="line"/>
      <point x="285" y="554" type="line"/>
      <point x="377" y="601" type="line"/>
      <point x="348" y="656" type="line"/>
      <point x="248" y="605" type="line"/>
      <point x="248" y="707" type="line"/>
      <point x="177" y="707" type="line"/>
      <point x="177" y="606" type="line"/>
      <point x="77" y="656" type="line"/>
      <point x="47" y="601" type="line"/>
      <point x="139" y="554" type="line"/>
      <point x="47" y="507" type="line"/>
    </contour>
  </outline>
</glyph>
<glyph name="zero" format="2">
  <advance width="577"/>
  <unicode hex="0030"/>
  <outline>
    <contour>
      <point x="294" y="-11" type="curve" smooth="yes"/>
      <point x="451.418" y="-11"/>
      <point x="531" y="75.969"/>
      <point x="531" y="248" type="curve" smooth="yes"/>
      <point x="531" y="467" type="line" smooth="yes"/>
      <point x="531" y="633.686"/>
      <point x="451.389" y="718"/>
      <point x="294" y="718" type="curve" smooth="yes"/>
      <point x="137.615" y="718"/>
      <point x="56" y="631.927"/>
      <point x="56" y="467" type="curve" smooth="yes"/>
      <point x="56" y="248" type="line" smooth="yes"/>
      <point x="56" y="75.333"/>
      <point x="135.333" y="-11"/>
    </contour>
    <contour>
      <point x="294" y="105" type="curve" smooth="yes"/>
      <point x="221.216" y="105"/>
      <point x="191" y="150.178"/>
      <point x="191" y="259" type="curve" smooth="yes"/>
      <point x="191" y="447" type="line" smooth="yes"/>
      <point x="191" y="555.466"/>
      <point x="220.98" y="600"/>
      <point x="294" y="600" type="curve" smooth="yes"/>
      <point x="367.02" y="600"/>
      <point x="397" y="555.466"/>
      <point x="397" y="447" type="curve" smooth="yes"/>
      <point x="397" y="259" type="line" smooth="yes"/>
      <point x="397" y="151.673"/>
      <point x="365.784" y="105"/>
    </contour>
  </outline>
</glyph>
<glyph name="four" format="2">
  <advance width="590"/>
  <unicode hex="0034"/>
  <outline>
    <contour>
      <point x="40" y="113" type="line"/>
      <point x="360" y="113" type="line"/>
      <point x="360" y="0" type="line"/>
      <point x="495" y="0" type="line"/>
      <point x="495" y="113" type="line"/>
      <point x="559" y="113" type="line"/>
      <point x="559" y="230" type="line"/>
      <point x="495" y="230" type="line"/>
      <point x="495" y="396" type="line"/>
      <point x="360" y="396" type="line"/>
      <point x="360" y="230" type="line"/>
      <point x="176" y="230" type="line"/>
      <point x="403" y="707" type="line"/>
      <point x="266" y="707" type="line"/>
      <point x="40" y="230" type="line"/>
    </contour>
  </outline>
</glyph>
<glyph name="five" format="2">
  <advance width="560"/>
  <unicode hex="0035"/>
  <outline>
    <contour>
      <point x="56" y="178" type="line"/>
      <point x="56" y="170" type="line" smooth="yes"/>
      <point x="56" y="58.643"/>
      <point x="142.188" y="-11"/>
      <point x="280" y="-11" type="curve" smooth="yes"/>
      <point x="427.412" y="-11"/>
      <point x="514" y="70.778"/>
      <point x="514" y="210" type="curve" smooth="yes"/>
      <point x="514" y="249" type="line" smooth="yes"/>
      <point x="514" y="385.137"/>
      <point x="438.204" y="465"/>
      <point x="309" y="465" type="curve" smooth="yes"/>
      <point x="259.667" y="465"/>
      <point x="218" y="452.333"/>
      <point x="184" y="427" type="curve"/>
      <point x="184" y="592" type="line"/>
      <point x="493" y="592" type="line"/>
      <point x="493" y="707" type="line"/>
      <point x="69" y="707" type="line"/>
      <point x="69" y="304" type="line"/>
      <point x="186" y="304" type="line"/>
      <point x="203.687" y="336.653"/>
      <point x="237.863" y="355"/>
      <point x="281" y="355" type="curve" smooth="yes"/>
      <point x="346.423" y="355"/>
      <point x="382" y="315.901"/>
      <point x="382" y="244" type="curve" smooth="yes"/>
      <point x="382" y="212" type="line" smooth="yes"/>
      <point x="382" y="141.03"/>
      <point x="346.164" y="102"/>
      <point x="281" y="102" type="curve" smooth="yes"/>
      <point x="222.926" y="102"/>
      <point x="184" y="130.893"/>
      <point x="184" y="174" type="curve" smooth="yes"/>
      <point x="184" y="178" type="line"/>
    </contour>
  </outline>
</glyph>
<glyph name="seven" format="2">
  <advance width="519"/>
  <unicode hex="0037"/>
  <outline>
    <contour>
      <point x="106" y="0" type="line"/>
      <point x="243" y="0" type="line"/>
      <point x="492" y="590" type="line"/>
      <point x="492" y="590.822"/>
      <point x="492" y="700.728"/>
      <point x="492" y="707" type="curve"/>
      <point x="34" y="707" type="line"/>
      <point x="34" y="590" type="line"/>
      <point x="357" y="590" type="line"/>
    </contour>
  </outline>
</glyph>
<glyph name="eight" format="2">
  <advance width="591"/>
  <unicode hex="0038"/>
  <outline>
    <contour>
      <point x="156" y="371" type="curve"/>
      <point x="93.204" y="340.27"/>
      <point x="56" y="281.86"/>
      <point x="56" y="214" type="curve" smooth="yes"/>
      <point x="56" y="200" type="line" smooth="yes"/>
      <point x="56" y="71.265"/>
      <point x="151.521" y="-11"/>
      <point x="301" y="-11" type="curve" smooth="yes"/>
      <point x="451.198" y="-11"/>
      <point x="546" y="71.032"/>
      <point x="546" y="201" type="curve" smooth="yes"/>
      <point x="546" y="215" type="line" smooth="yes"/>
      <point x="546" y="281.04"/>
      <point x="509.003" y="339.339"/>
      <point x="447" y="371" type="curve"/>
      <point x="499.44" y="396.547"/>
      <point x="532" y="450.176"/>
      <point x="532" y="511" type="curve" smooth="yes"/>
      <point x="532" y="522" type="line" smooth="yes"/>
      <point x="532" y="641.282"/>
      <point x="441.973" y="718"/>
      <point x="302" y="718" type="curve" smooth="yes"/>
      <point x="162.555" y="718"/>
      <point x="72" y="640.832"/>
      <point x="72" y="522" type="curve" smooth="yes"/>
      <point x="72" y="511" type="line" smooth="yes"/>
      <point x="72" y="449"/>
      <point x="103.435" y="396.609"/>
    </contour>
    <contour>
      <point x="203" y="510" type="curve" smooth="yes"/>
      <point x="203" y="521" type="line" smooth="yes"/>
      <point x="203" y="573.269"/>
      <point x="239.655" y="604"/>
      <point x="302" y="604" type="curve" smooth="yes"/>
      <point x="363.365" y="604"/>
      <point x="400" y="572.973"/>
      <point x="400" y="521" type="curve" smooth="yes"/>
      <point x="400" y="510" type="line" smooth="yes"/>
      <point x="400" y="455.556"/>
      <point x="364.041" y="424"/>
      <point x="302" y="424" type="curve" smooth="yes"/>
      <point x="239.302" y="424"/>
      <point x="203" y="455.535"/>
    </contour>
    <contour>
      <point x="188" y="202" type="curve" smooth="yes"/>
      <point x="188" y="217" type="line" smooth="yes"/>
      <point x="188" y="276.754"/>
      <point x="231.042" y="313"/>
      <point x="302" y="313" type="curve" smooth="yes"/>
      <point x="372.646" y="313"/>
      <point x="415" y="277.018"/>
      <point x="415" y="217" type="curve" smooth="yes"/>
      <point x="415" y="202" type="line" smooth="yes"/>
      <point x="415" y="139.846"/>
      <point x="372.234" y="102"/>
      <point x="302" y="102" type="curve" smooth="yes"/>
      <point x="230.28" y="102"/>
      <point x="188" y="139.088"/>
    </contour>
  </outline>
</glyph>
<glyph name="nine" format="2">
  <advance width="582"/>
  <unicode hex="0039"/>
  <outline>
    <contour>
      <point x="163" y="0" type="line"/>
      <point x="307" y="0" type="line"/>
      <point x="489" y="314" type="line"/>
      <point x="524.333" y="373.333"/>
      <point x="542" y="429.333"/>
      <point x="542" y="482" type="curve" smooth="yes"/>
      <point x="542" y="504" type="line" smooth="yes"/>
      <point x="542" y="637.94"/>
      <point x="449.969" y="718"/>
      <point x="296" y="718" type="curve" smooth="yes"/>
      <point x="143.578" y="718"/>
      <point x="51" y="635.624"/>
      <point x="51" y="500" type="curve" smooth="yes"/>
      <point x="51" y="478" type="line" smooth="yes"/>
      <point x="51" y="355.466"/>
      <point x="132.258" y="275"/>
      <point x="256" y="275" type="curve"/>
      <point x="284" y="275.667"/>
      <point x="308.667" y="280.667"/>
      <point x="330" y="290" type="curve"/>
    </contour>
    <contour>
      <point x="185" y="486" type="curve" smooth="yes"/>
      <point x="185" y="504" type="line" smooth="yes"/>
      <point x="185" y="566.565"/>
      <point x="226.553" y="604"/>
      <point x="296" y="604" type="curve" smooth="yes"/>
      <point x="365.798" y="604"/>
      <point x="407" y="567.252"/>
      <point x="407" y="505" type="curve" smooth="yes"/>
      <point x="407" y="485" type="line" smooth="yes"/>
      <point x="407" y="423.426"/>
      <point x="365.742" y="387"/>
      <point x="296" y="387" type="curve" smooth="yes"/>
      <point x="226.202" y="387"/>
      <point x="185" y="423.748"/>
    </contour>
  </outline>
</glyph>
<glyph name="question" format="2">
  <advance width="512"/>
  <unicode hex="003F"/>
  <outline>
    <contour>
      <point x="184" y="198" type="line"/>
      <point x="311" y="198" type="line"/>
      <point x="311" y="229" type="line" smooth="yes"/>
      <point x="311" y="272.74"/>
      <point x="321.263" y="291.7"/>
      <point x="352" y="324" type="curve" smooth="yes"/>
      <point x="411" y="386" type="line" smooth="yes"/>
      <point x="452.932" y="430.064"/>
      <point x="477" y="477.333"/>
      <point x="477" y="534" type="curve" smooth="yes"/>
      <point x="477" y="648.555"/>
      <point x="392.472" y="717"/>
      <point x="251" y="717" type="curve" smooth="yes"/>
      <point x="106.333" y="717"/>
      <point x="32" y="651.333"/>
      <point x="28" y="520" type="curve"/>
      <point x="152" y="520" type="line"/>
      <point x="153.353" y="575.475"/>
      <point x="183.605" y="601"/>
      <point x="248" y="601" type="curve" smooth="yes"/>
      <point x="312.45" y="601"/>
      <point x="346" y="575.667"/>
      <point x="346" y="527" type="curve" smooth="yes"/>
      <point x="346" y="495.928"/>
      <point x="331.174" y="475.565"/>
      <point x="295" y="438" type="curve" smooth="yes"/>
      <point x="243" y="384" type="line" smooth="yes"/>
      <point x="199.478" y="338.804"/>
      <point x="184" y="311.569"/>
      <point x="184" y="245" type="curve" smooth="yes"/>
    </contour>
    <contour>
      <point x="180" y="0" type="line"/>
      <point x="314" y="0" type="line"/>
      <point x="314" y="129" type="line"/>
      <point x="180" y="129" type="line"/>
    </contour>
  </outline>
</glyph>
<glyph name="at" format="2">
  <advance width="894"/>
  <unicode hex="0040"/>
  <outline>
    <contour>
      <point x="660" y="15" type="line"/>
      <point x="585.807" y="-22.097"/>
      <point x="525.333" y="-37"/>
      <point x="449" y="-37" type="curve" smooth="yes"/>
      <point x="272.419" y="-37"/>
      <point x="162" y="74.573"/>
      <point x="162" y="253" type="curve" smooth="yes"/>
      <point x="162" y="326" type="line" smooth="yes"/>
      <point x="162" y="504.168"/>
      <point x="270.209" y="612"/>
      <point x="449" y="612" type="curve" smooth="yes"/>
      <point x="625.699" y="612"/>
      <point x="734" y="504.079"/>
      <point x="734" y="328" type="curve" smooth="yes"/>
      <point x="734" y="256" type="line" smooth="yes"/>
      <point x="734" y="182.713"/>
      <point x="716.409" y="150"/>
      <point x="677" y="150" type="curve" smooth="yes"/>
      <point x="644.479" y="150"/>
      <point x="627" y="172.373"/>
      <point x="627" y="214" type="curve" smooth="yes"/>
      <point x="627" y="506" type="line"/>
      <point x="515" y="506" type="line"/>
      <point x="515" y="465" type="line"/>
      <point x="496.87" y="497.076"/>
      <point x="456.256" y="517"/>
      <point x="409" y="517" type="curve" smooth="yes"/>
      <point x="312.319" y="517"/>
      <point x="261" y="452.505"/>
      <point x="261" y="331" type="curve" smooth="yes"/>
      <point x="261" y="241" type="line" smooth="yes"/>
      <point x="261" y="117"/>
      <point x="312.667" y="55"/>
      <point x="416" y="55" type="curve" smooth="yes"/>
      <point x="481.333" y="55"/>
      <point x="525" y="77.333"/>
      <point x="547" y="122" type="curve"/>
      <point x="570.019" y="78.67"/>
      <point x="615.592" y="55"/>
      <point x="676" y="55" type="curve" smooth="yes"/>
      <point x="781.957" y="55"/>
      <point x="849" y="133.281"/>
      <point x="849" y="257" type="curve" smooth="yes"/>
      <point x="849" y="329" type="line" smooth="yes"/>
      <point x="849" y="555.047"/>
      <point x="683.245" y="715"/>
      <point x="449" y="715" type="curve" smooth="yes"/>
      <point x="210.078" y="715"/>
      <point x="47" y="556.384"/>
      <point x="47" y="324" type="curve" smooth="yes"/>
      <point x="47" y="252" type="line" smooth="yes"/>
      <point x="47" y="18.806"/>
      <point x="209.245" y="-139"/>
      <point x="449" y="-139" type="curve" smooth="yes"/>
      <point x="548.502" y="-139"/>
      <point x="627.989" y="-118.278"/>
      <point x="706" y="-72" type="curve"/>
    </contour>
    <contour>
      <point x="445" y="152" type="curve" smooth="yes"/>
      <point x="398.726" y="152"/>
      <point x="376" y="183.29"/>
      <point x="376" y="247" type="curve" smooth="yes"/>
      <point x="376" y="331" type="line" smooth="yes"/>
      <point x="376" y="390.304"/>
      <point x="399.533" y="421"/>
      <point x="445" y="421" type="curve" smooth="yes"/>
      <point x="490.333" y="421"/>
      <point x="513" y="390.667"/>
      <point x="513" y="330" type="curve" smooth="yes"/>
      <point x="513" y="244" type="line" smooth="yes"/>
      <point x="513" y="182.667"/>
      <point x="490.333" y="152"/>
    </contour>
  </outline>
</glyph>
<glyph name="A" format="2">
  <advance width="697"/>
  <unicode hex="0041"/>
  <anchor x="348" y="776" name="top"/>
  <anchor x="348" y="651" name="t.ring"/>
  <anchor x="348" y="-86" name="bottom"/>
  <anchor x="686" y="0" name="b.cedilla"/>
  <outline>
    <contour>
      <point x="4" y="0" type="line"/>
      <point x="147" y="0" type="line"/>
      <point x="199" y="137" type="line"/>
      <point x="499" y="137" type="line"/>
      <point x="550" y="0" type="line"/>
      <point x="693" y="0" type="line"/>
      <point x="403" y="707" type="line"/>
      <point x="294" y="707" type="line"/>
    </contour>
    <contour>
      <point x="241" y="249" type="line"/>
      <point x="348" y="537" type="line"/>
      <point x="457" y="249" type="line"/>
    </contour>
  </outline>
</glyph>
<glyph name="C" format="2">
  <advance width="689"/>
  <unicode hex="0043"/>
  <anchor x="357" y="776" name="top"/>
  <anchor x="320" y="0" name="b.cedilla"/>
  <anchor x="236" y="-86" name="bottom"/>
  <outline>
    <contour>
      <point x="509" y="240" type="line"/>
      <point x="509" y="234" type="line" smooth="yes"/>
      <point x="509" y="156.204"/>
      <point x="453.108" y="110"/>
      <point x="359" y="110" type="curve" smooth="yes"/>
      <point x="246.12" y="110"/>
      <point x="191" y="172.667"/>
      <point x="191" y="301" type="curve" smooth="yes"/>
      <point x="191" y="402" type="line" smooth="yes"/>
      <point x="191" y="537.066"/>
      <point x="245.22" y="602"/>
      <point x="358" y="602" type="curve" smooth="yes"/>
      <point x="451.734" y="602"/>
      <point x="509" y="553.457"/>
      <point x="509" y="474" type="curve" smooth="yes"/>
      <point x="509" y="470" type="line"/>
      <point x="643" y="470" type="line"/>
      <point x="643" y="478" type="line" smooth="yes"/>
      <point x="643" y="627.47"/>
      <point x="534.028" y="720"/>
      <point x="358" y="720" type="curve" smooth="yes"/>
      <point x="162.667" y="720"/>
      <point x="56" y="610.508"/>
      <point x="56" y="410" type="curve" smooth="yes"/>
      <point x="56" y="299" type="line" smooth="yes"/>
      <point x="56" y="98.918"/>
      <point x="162.727" y="-11"/>
      <point x="357" y="-11" type="curve" smooth="yes"/>
      <point x="534.945" y="-11"/>
      <point x="642" y="81.03"/>
      <point x="642" y="234" type="curve" smooth="yes"/>
      <point x="642" y="240" type="line"/>
    </contour>
  </outline>
</glyph>
<glyph name="D" format="2">
  <advance width="677"/>
  <unicode hex="0044"/>
  <anchor x="296" y="776" name="top"/>
  <anchor x="298" y="-86" name="bottom"/>
  <outline>
    <contour>
      <point x="60" y="0" type="line"/>
      <point x="331" y="0" type="line" smooth="yes"/>
      <point x="528.609" y="0"/>
      <point x="632" y="106.483"/>
      <point x="632" y="310" type="curve" smooth="yes"/>
      <point x="632" y="397" type="line" smooth="yes"/>
      <point x="632" y="600.779"/>
      <point x="530.576" y="707"/>
      <point x="336" y="707" type="curve" smooth="yes"/>
      <point x="60" y="707" type="line"/>
    </contour>
    <contour>
      <point x="195" y="117" type="line"/>
      <point x="195" y="590" type="line"/>
      <point x="335" y="590" type="line" smooth="yes"/>
      <point x="446.84" y="590"/>
      <point x="498" y="527.227"/>
      <point x="498" y="390" type="curve" smooth="yes"/>
      <point x="498" y="310" type="line" smooth="yes"/>
      <point x="498" y="177.816"/>
      <point x="446.637" y="117"/>
      <point x="335" y="117" type="curve" smooth="yes"/>
    </contour>
  </outline>
</glyph>
<glyph name="E" format="2">
  <advance width="601"/>
  <unicode hex="0045"/>
  <anchor x="318" y="776" name="top"/>
  <anchor x="318" y="-86" name="bottom"/>
  <anchor x="565" y="0" name="b.cedilla"/>
  <outline>
    <contour>
      <point x="60" y="0" type="line"/>
      <point x="565" y="0" type="line"/>
      <point x="565" y="117" type="line"/>
      <point x="195" y="117" type="line"/>
      <point x="195" y="298" type="line"/>
      <point x="513" y="298" type="line"/>
      <point x="513" y="415" type="line"/>
      <point x="195" y="415" type="line"/>
      <point x="195" y="590" type="line"/>
      <point x="565" y="590" type="line"/>
      <point x="565" y="707" type="line"/>
      <point x="60" y="707" type="line"/>
    </contour>
  </outline>
</glyph>
<glyph name="G" format="2">
  <advance width="689"/>
  <unicode hex="0047"/>
  <anchor x="355" y="776" name="top"/>
  <anchor x="350" y="-86" name="bottom"/>
  <outline>
    <contour>
      <point x="355" y="268" type="line"/>
      <point x="510" y="268" type="line"/>
      <point x="510" y="243" type="line" smooth="yes"/>
      <point x="510" y="153.119"/>
      <point x="461.045" y="110"/>
      <point x="359" y="110" type="curve" smooth="yes"/>
      <point x="244.583" y="110"/>
      <point x="191" y="171.238"/>
      <point x="191" y="302" type="curve" smooth="yes"/>
      <point x="191" y="403" type="line" smooth="yes"/>
      <point x="191" y="537.731"/>
      <point x="244.935" y="602"/>
      <point x="358" y="602" type="curve" smooth="yes"/>
      <point x="450.432" y="602"/>
      <point x="509" y="553.517"/>
      <point x="509" y="477" type="curve" smooth="yes"/>
      <point x="509" y="473" type="line"/>
      <point x="643" y="473" type="line"/>
      <point x="643" y="481" type="line" smooth="yes"/>
      <point x="643" y="627.72"/>
      <point x="532.959" y="720"/>
      <point x="358" y="720" type="curve" smooth="yes"/>
      <point x="162.667" y="720"/>
      <point x="56" y="610.508"/>
      <point x="56" y="410" type="curve" smooth="yes"/>
      <point x="56" y="299" type="line" smooth="yes"/>
      <point x="56" y="99.093"/>
      <point x="162.897" y="-11"/>
      <point x="357" y="-11" type="curve" smooth="yes"/>
      <point x="541.349" y="-11"/>
      <point x="643" y="86.03"/>
      <point x="643" y="262" type="curve" smooth="yes"/>
      <point x="643" y="379" type="line"/>
      <point x="355" y="379" type="line"/>
    </contour>
  </outline>
</glyph>
<glyph name="H" format="2">
  <advance width="687"/>
  <unicode hex="0048"/>
  <anchor x="344" y="776" name="top"/>
  <anchor x="344" y="-86" name="bottom"/>
  <outline>
    <contour>
      <point x="174.64" y="299" type="line"/>
      <point x="513.36" y="299" type="line"/>
      <point x="513.36" y="416" type="line"/>
      <point x="174.64" y="416" type="line"/>
    </contour>
    <contour>
      <point x="493" y="0" type="line"/>
      <point x="627" y="0" type="line"/>
      <point x="627" y="707" type="line"/>
      <point x="493" y="707" type="line"/>
    </contour>
    <contour>
      <point x="60" y="0" type="line"/>
      <point x="195" y="0" type="line"/>
      <point x="195" y="707" type="line"/>
      <point x="60" y="707" type="line"/>
    </contour>
  </outline>
</glyph>
<glyph name="J" format="2">
  <advance width="370"/>
  <unicode hex="004A"/>
  <anchor x="236" y="776" name="top"/>
  <anchor x="236" y="-86" name="bottom"/>
  <outline>
    <contour>
      <point x="25" y="0" type="line"/>
      <point x="122" y="0" type="line" smooth="yes"/>
      <point x="242.324" y="0"/>
      <point x="304" y="59.982"/>
      <point x="304" y="177" type="curve" smooth="yes"/>
      <point x="304" y="707" type="line"/>
      <point x="169" y="707" type="line"/>
      <point x="169" y="200" type="line" smooth="yes"/>
      <point x="169" y="138"/>
      <point x="149" y="118"/>
      <point x="87" y="118" type="curve" smooth="yes"/>
      <point x="25" y="118" type="line"/>
    </contour>
  </outline>
</glyph>
<glyph name="K" format="2">
  <advance width="694"/>
  <unicode hex="004B"/>
  <anchor x="344" y="776" name="top"/>
  <anchor x="330" y="-86" name="bottom"/>
  <outline>
    <contour>
      <point x="60" y="0" type="line"/>
      <point x="195" y="0" type="line"/>
      <point x="195" y="197" type="line"/>
      <point x="314" y="326" type="line"/>
      <point x="525" y="0" type="line"/>
      <point x="688" y="0" type="line"/>
      <point x="404" y="422" type="line"/>
      <point x="668" y="707" type="line"/>
      <point x="496" y="707" type="line"/>
      <point x="195" y="364" type="line"/>
      <point x="195" y="707" type="line"/>
      <point x="60" y="707" type="line"/>
    </contour>
  </outline>
</glyph>
<glyph name="L" format="2">
  <advance width="583"/>
  <unicode hex="004C"/>
  <anchor x="127" y="776" name="top"/>
  <anchor x="309" y="-86" name="bottom"/>
  <anchor x="419" y="397" name="dot"/>
  <outline>
    <contour>
      <point x="60" y="0" type="line"/>
      <point x="559" y="0" type="line"/>
      <point x="559" y="117" type="line"/>
      <point x="195" y="117" type="line"/>
      <point x="195" y="707" type="line"/>
      <point x="60" y="707" type="line"/>
    </contour>
  </outline>
</glyph>
<glyph name="M" format="2">
  <advance width="828"/>
  <unicode hex="004D"/>
  <anchor x="416" y="776" name="top"/>
  <anchor x="236" y="-86" name="bottom"/>
  <outline>
    <contour>
      <point x="60" y="0" type="line"/>
      <point x="195" y="0" type="line"/>
      <point x="195" y="451" type="line"/>
      <point x="371" y="136" type="line"/>
      <point x="461" y="136" type="line"/>
      <point x="634" y="447" type="line"/>
      <point x="634" y="0" type="line"/>
      <point x="768" y="0" type="line"/>
      <point x="768" y="707" type="line"/>
      <point x="634" y="707" type="line"/>
      <point x="416" y="302" type="line"/>
      <point x="195" y="707" type="line"/>
      <point x="60" y="707" type="line"/>
    </contour>
  </outline>
</glyph>
<glyph name="N" format="2">
  <advance width="715"/>
  <unicode hex="004E"/>
  <anchor x="350" y="776" name="top"/>
  <anchor x="350" y="-86" name="bottom"/>
  <outline>
    <contour>
      <point x="60" y="0" type="line"/>
      <point x="195" y="0" type="line"/>
      <point x="195" y="468" type="line"/>
      <point x="521" y="0" type="line"/>
      <point x="655" y="0" type="line"/>
      <point x="655" y="707" type="line"/>
      <point x="521" y="707" type="line"/>
      <point x="521" y="238" type="line"/>
      <point x="195" y="707" type="line"/>
      <point x="60" y="707" type="line"/>
    </contour>
  </outline>
</glyph>
<glyph name="P" format="2">
  <advance width="643"/>
  <unicode hex="0050"/>
  <anchor x="311" y="776" name="top"/>
  <anchor x="236" y="-86" name="bottom"/>
  <outline>
    <contour>
      <point x="60" y="0" type="line"/>
      <point x="195" y="0" type="line"/>
      <point x="195" y="268" type="line"/>
      <point x="360" y="268" type="line" smooth="yes"/>
      <point x="523.515" y="268"/>
      <point x="618" y="347.47"/>
      <point x="618" y="485" type="curve" smooth="yes"/>
      <point x="618" y="626.033"/>
      <point x="526.091" y="707"/>
      <point x="366" y="707" type="curve" smooth="yes"/>
      <point x="60" y="707" type="line"/>
    </contour>
    <contour>
      <point x="195" y="386" type="line"/>
      <point x="195" y="590" type="line"/>
      <point x="371" y="590" type="line" smooth="yes"/>
      <point x="444.667" y="590"/>
      <point x="484" y="553.799"/>
      <point x="484" y="486" type="curve" smooth="yes"/>
      <point x="484" y="419.333"/>
      <point x="446.333" y="386"/>
      <point x="371" y="386" type="curve" smooth="yes"/>
    </contour>
  </outline>
</glyph>
<glyph name="Q" format="2">
  <advance width="689"/>
  <unicode hex="0051"/>
  <anchor x="351" y="776" name="top"/>
  <anchor x="236" y="-86" name="bottom"/>
  <outline>
    <contour>
      <point x="347" y="-11" type="curve" smooth="yes"/>
      <point x="536.406" y="-11"/>
      <point x="643" y="100.636"/>
      <point x="643" y="299" type="curve" smooth="yes"/>
      <point x="643" y="410" type="line" smooth="yes"/>
      <point x="643" y="608.922"/>
      <point x="538.372" y="720"/>
      <point x="351" y="720" type="curve" smooth="yes"/>
      <point x="160.667" y="720"/>
      <point x="56" y="610.011"/>
      <point x="56" y="410" type="curve" smooth="yes"/>
      <point x="56" y="299" type="line" smooth="yes"/>
      <point x="56" y="98.37"/>
      <point x="158.667" y="-11"/>
    </contour>
    <contour>
      <point x="351" y="110" type="curve" smooth="yes"/>
      <point x="243.88" y="110"/>
      <point x="191" y="173.125"/>
      <point x="191" y="301" type="curve" smooth="yes"/>
      <point x="191" y="402" type="line" smooth="yes"/>
      <point x="191" y="537.5"/>
      <point x="242.6" y="602"/>
      <point x="351" y="602" type="curve" smooth="yes"/>
      <point x="456.333" y="602"/>
      <point x="509" y="535.333"/>
      <point x="509" y="402" type="curve" smooth="yes"/>
      <point x="509" y="301" type="line" smooth="yes"/>
      <point x="509" y="173.667"/>
      <point x="456.333" y="110"/>
    </contour>
    <contour>
      <point x="519" y="-158" type="line"/>
      <point x="622" y="-101" type="line"/>
      <point x="533.626" y="60.474" type="line"/>
      <point x="426.651" y="11.488" type="line"/>
    </contour>
  </outline>
</glyph>
<glyph name="S" format="2">
  <advance width="622"/>
  <unicode hex="0053"/>
  <anchor x="301" y="776" name="top"/>
  <anchor x="287" y="0" name="b.cedilla"/>
  <anchor x="301" y="-86" name="bottom"/>
  <outline>
    <contour>
      <point x="29" y="215" type="line"/>
      <point x="39.768" y="70.979"/>
      <point x="136.602" y="-6"/>
      <point x="307" y="-6" type="curve" smooth="yes"/>
      <point x="486.224" y="-6"/>
      <point x="591" y="75.164"/>
      <point x="591" y="214" type="curve" smooth="yes"/>
      <point x="591" y="327.426"/>
      <point x="520.819" y="395.553"/>
      <point x="386" y="413" type="curve" smooth="yes"/>
      <point x="301" y="424" type="line" smooth="yes"/>
      <point x="213.678" y="435.3"/>
      <point x="176" y="462.429"/>
      <point x="176" y="514" type="curve" smooth="yes"/>
      <point x="176" y="572.667"/>
      <point x="222.652" y="604"/>
      <point x="310" y="604" type="curve" smooth="yes"/>
      <point x="399.531" y="604"/>
      <point x="441.678" y="573.85"/>
      <point x="447" y="506" type="curve"/>
      <point x="577" y="506" type="line"/>
      <point x="564.93" y="642.791"/>
      <point x="472.081" y="717"/>
      <point x="313" y="717" type="curve" smooth="yes"/>
      <point x="148.37" y="717"/>
      <point x="46" y="635.334"/>
      <point x="46" y="504" type="curve" smooth="yes"/>
      <point x="46" y="389.561"/>
      <point x="118.118" y="323.146"/>
      <point x="261" y="306" type="curve" smooth="yes"/>
      <point x="336" y="297" type="line" smooth="yes"/>
      <point x="423.293" y="286.525"/>
      <point x="459" y="259.527"/>
      <point x="459" y="204" type="curve"/>
      <point x="458.333" y="140.667"/>
      <point x="410" y="109"/>
      <point x="314" y="109" type="curve" smooth="yes"/>
      <point x="214.704" y="109"/>
      <point x="166.152" y="141.78"/>
      <point x="157" y="215" type="curve"/>
    </contour>
  </outline>
</glyph>
<glyph name="T" format="2">
  <advance width="570"/>
  <unicode hex="0054"/>
  <anchor x="285" y="-86" name="bottom"/>
  <anchor x="285" y="776" name="top"/>
  <anchor x="248" y="0" name="b.cedilla"/>
  <outline>
    <contour>
      <point x="218" y="0" type="line"/>
      <point x="352" y="0" type="line"/>
      <point x="352" y="590" type="line"/>
      <point x="564" y="590" type="line"/>
      <point x="564" y="707" type="line"/>
      <point x="6" y="707" type="line"/>
      <point x="6" y="590" type="line"/>
      <point x="218" y="590" type="line"/>
    </contour>
  </outline>
</glyph>
<glyph name="U" format="2">
  <advance width="692"/>
  <unicode hex="0055"/>
  <anchor x="345" y="776" name="top"/>
  <anchor x="345" y="-86" name="bottom"/>
  <anchor x="408" y="0" name="b.cedilla"/>
  <outline>
    <contour>
      <point x="60" y="707" type="line"/>
      <point x="60" y="254" type="line" smooth="yes"/>
      <point x="60" y="96.549"/>
      <point x="172.41" y="-6"/>
      <point x="345" y="-6" type="curve" smooth="yes"/>
      <point x="519.409" y="-6"/>
      <point x="632" y="95.999"/>
      <point x="632" y="254" type="curve" smooth="yes"/>
      <point x="632" y="707" type="line"/>
      <point x="498" y="707" type="line"/>
      <point x="498" y="258" type="line" smooth="yes"/>
      <point x="498" y="163.242"/>
      <point x="443.626" y="111"/>
      <point x="345" y="111" type="curve" smooth="yes"/>
      <point x="247.354" y="111"/>
      <point x="194" y="162.307"/>
      <point x="194" y="258" type="curve" smooth="yes"/>
      <point x="194" y="707" type="line"/>
    </contour>
  </outline>
</glyph>
<glyph name="V" format="2">
  <advance width="637"/>
  <unicode hex="0056"/>
  <anchor x="318" y="776" name="top"/>
  <anchor x="318" y="-86" name="bottom"/>
  <outline>
    <contour>
      <point x="264" y="0" type="line"/>
      <point x="372" y="0" type="line"/>
      <point x="634" y="707" type="line"/>
      <point x="490" y="707" type="line"/>
      <point x="318" y="198" type="line"/>
      <point x="147" y="707" type="line"/>
      <point x="4" y="707" type="line"/>
    </contour>
  </outline>
</glyph>
<glyph name="W" format="2">
  <advance width="958"/>
  <unicode hex="0057"/>
  <anchor x="482" y="776" name="top"/>
  <anchor x="484" y="-86" name="bottom"/>
  <outline>
    <contour>
      <point x="208" y="0" type="line"/>
      <point x="330" y="0" type="line"/>
      <point x="482" y="544" type="line"/>
      <point x="634" y="0" type="line"/>
      <point x="757" y="0" type="line"/>
      <point x="954" y="707" type="line"/>
      <point x="822" y="707" type="line"/>
      <point x="701" y="189" type="line"/>
      <point x="565" y="707" type="line"/>
      <point x="399" y="707" type="line"/>
      <point x="275" y="189" type="line"/>
      <point x="141" y="707" type="line"/>
      <point x="4" y="707" type="line"/>
    </contour>
  </outline>
</glyph>
<glyph name="X" format="2">
  <advance width="681"/>
  <unicode hex="0058"/>
  <anchor x="336" y="776" name="top"/>
  <anchor x="236" y="-86" name="bottom"/>
  <outline>
    <contour>
      <point x="4" y="0" type="line"/>
      <point x="166" y="0" type="line"/>
      <point x="336" y="265" type="line"/>
      <point x="513" y="0" type="line"/>
      <point x="678" y="0" type="line"/>
      <point x="420" y="373" type="line"/>
      <point x="652" y="707" type="line"/>
      <point x="490" y="707" type="line"/>
      <point x="344" y="473" type="line"/>
      <point x="187" y="707" type="line"/>
      <point x="23" y="707" type="line"/>
      <point x="259" y="367" type="line"/>
    </contour>
  </outline>
</glyph>
<glyph name="Y" format="2">
  <advance width="622"/>
  <unicode hex="0059"/>
  <anchor x="311" y="776" name="top"/>
  <anchor x="311" y="-86" name="bottom"/>
  <outline>
    <contour>
      <point x="245" y="0" type="line"/>
      <point x="379" y="0" type="line"/>
      <point x="379" y="292" type="line"/>
      <point x="618" y="707" type="line"/>
      <point x="467" y="707" type="line"/>
      <point x="311" y="411" type="line"/>
      <point x="156" y="707" type="line"/>
      <point x="4" y="707" type="line"/>
      <point x="245" y="291" type="line"/>
    </contour>
  </outline>
</glyph>
<glyph name="Z" format="2">
  <advance width="574"/>
  <unicode hex="005A"/>
  <anchor x="280" y="776" name="top"/>
  <anchor x="280" y="-86" name="bottom"/>
  <outline>
    <contour>
      <point x="31" y="0" type="line"/>
      <point x="547" y="0" type="line"/>
      <point x="547" y="118" type="line"/>
      <point x="185" y="118" type="line"/>
      <point x="537" y="590" type="line"/>
      <point x="537" y="707" type="line"/>
      <point x="38" y="707" type="line"/>
      <point x="38" y="590" type="line"/>
      <point x="383" y="590" type="line"/>
      <point x="31" y="118" type="line"/>
    </contour>
  </outline>
</glyph>
<glyph name="bracketright" format="2">
  <advance width="350"/>
  <unicode hex="005D"/>
  <outline>
    <contour>
      <point x="47" y="-86" type="line"/>
      <point x="290" y="-86" type="line"/>
      <point x="290" y="757" type="line"/>
      <point x="47" y="757" type="line"/>
      <point x="47" y="640" type="line"/>
      <point x="163" y="640" type="line"/>
      <point x="163" y="32" type="line"/>
      <point x="47" y="32" type="line"/>
    </contour>
  </outline>
</glyph>
<glyph name="grave" format="2">
  <advance width="512"/>
  <unicode hex="0060"/>
  <outline>
    <contour>
      <point x="48" y="738" type="line"/>
      <point x="228" y="602" type="line"/>
      <point x="348" y="602" type="line"/>
      <point x="213" y="738" type="line"/>
    </contour>
  </outline>
</glyph>
<glyph name="a" format="2">
  <advance width="566"/>
  <unicode hex="0061"/>
  <anchor x="274" y="602" name="top"/>
  <anchor x="274" y="588" name="t.ring"/>
  <anchor x="274" y="-86" name="bottom"/>
  <anchor x="511" y="0" name="b.cedilla"/>
  <outline>
    <contour>
      <point x="388" y="0" type="line"/>
      <point x="511" y="0" type="line"/>
      <point x="511" y="340" type="line" smooth="yes"/>
      <point x="511" y="468.172"/>
      <point x="427.003" y="539"/>
      <point x="275" y="539" type="curve" smooth="yes"/>
      <point x="138.971" y="539"/>
      <point x="54" y="476.329"/>
      <point x="54" y="376" type="curve" smooth="yes"/>
      <point x="54" y="373" type="line"/>
      <point x="175" y="373" type="line"/>
      <point x="175" y="376" type="line" smooth="yes"/>
      <point x="175" y="417.45"/>
      <point x="210.144" y="441"/>
      <point x="272" y="441" type="curve" smooth="yes"/>
      <point x="347.333" y="441"/>
      <point x="385" y="409.333"/>
      <point x="385" y="346" type="curve" smooth="yes"/>
      <point x="385" y="314" type="line"/>
      <point x="361.337" y="314"/>
      <point x="266.667" y="314"/>
      <point x="243" y="314" type="curve" smooth="yes"/>
      <point x="109.323" y="314"/>
      <point x="38" y="260.073"/>
      <point x="38" y="159" type="curve" smooth="yes"/>
      <point x="38" y="52.179"/>
      <point x="106.758" y="-6"/>
      <point x="233" y="-6" type="curve" smooth="yes"/>
      <point x="302.697" y="-6"/>
      <point x="345.555" y="9.208"/>
      <point x="388" y="49" type="curve"/>
    </contour>
    <contour>
      <point x="385" y="227" type="line"/>
      <point x="385" y="195" type="line" smooth="yes"/>
      <point x="385" y="129"/>
      <point x="343.669" y="95"/>
      <point x="261" y="95" type="curve" smooth="yes"/>
      <point x="195.826" y="95"/>
      <point x="161" y="118.333"/>
      <point x="161" y="162" type="curve" smooth="yes"/>
      <point x="161" y="206.952"/>
      <point x="193.385" y="227"/>
      <point x="266" y="227" type="curve" smooth="yes"/>
    </contour>
  </outline>
</glyph>
<glyph name="d" format="2">
  <advance width="584"/>
  <unicode hex="0064"/>
  <anchor x="270" y="590" name="top"/>
  <anchor x="270" y="-86" name="bottom"/>
  <outline>
    <contour>
      <point x="406" y="0" type="line"/>
      <point x="529" y="0" type="line"/>
      <point x="529" y="707" type="line"/>
      <point x="403" y="707" type="line"/>
      <point x="403" y="475" type="line"/>
      <point x="365.667" y="519.667"/>
      <point x="315.667" y="542"/>
      <point x="253" y="542" type="curve" smooth="yes"/>
      <point x="127.023" y="542"/>
      <point x="47" y="447.993"/>
      <point x="47" y="300" type="curve" smooth="yes"/>
      <point x="47" y="233" type="line" smooth="yes"/>
      <point x="47" y="82.718"/>
      <point x="125.832" y="-9"/>
      <point x="255" y="-9" type="curve" smooth="yes"/>
      <point x="321.003" y="-9"/>
      <point x="371.333" y="12.333"/>
      <point x="406" y="57" type="curve"/>
    </contour>
    <contour>
      <point x="284" y="104" type="curve" smooth="yes"/>
      <point x="211.728" y="104"/>
      <point x="174" y="150.303"/>
      <point x="174" y="239" type="curve" smooth="yes"/>
      <point x="174" y="294" type="line" smooth="yes"/>
      <point x="174" y="382.342"/>
      <point x="213.054" y="429"/>
      <point x="287" y="429" type="curve" smooth="yes"/>
      <point x="359.954" y="429"/>
      <point x="403" y="380.759"/>
      <point x="403" y="299" type="curve" smooth="yes"/>
      <point x="403" y="231" type="line" smooth="yes"/>
      <point x="403" y="152.367"/>
      <point x="357.679" y="104"/>
    </contour>
  </outline>
</glyph>
<glyph name="f" format="2">
  <advance width="376"/>
  <unicode hex="0066"/>
  <anchor x="197" y="776" name="top"/>
  <anchor x="236" y="-86" name="bottom"/>
  <outline>
    <contour>
      <point x="109" y="0" type="line"/>
      <point x="234" y="0" type="line"/>
      <point x="234" y="443" type="line"/>
      <point x="349" y="443" type="line"/>
      <point x="349" y="532" type="line"/>
      <point x="234" y="532" type="line"/>
      <point x="234" y="559" type="line" smooth="yes"/>
      <point x="234" y="603.301"/>
      <point x="253.412" y="621"/>
      <point x="302" y="621" type="curve" smooth="yes"/>
      <point x="349" y="621" type="line"/>
      <point x="349" y="707" type="line"/>
      <point x="266" y="707" type="line" smooth="yes"/>
      <point x="162.009" y="707"/>
      <point x="109" y="655.342"/>
      <point x="109" y="554" type="curve" smooth="yes"/>
      <point x="109" y="532" type="line"/>
      <point x="37" y="532" type="line"/>
      <point x="37" y="443" type="line"/>
      <point x="109" y="443" type="line"/>
    </contour>
  </outline>
</glyph>
<glyph name="j" format="2">
  <advance width="246"/>
  <unicode hex="006A"/>
  <outline>
    <contour>
      <point x="60" y="608" type="line"/>
      <point x="186" y="608" type="line"/>
      <point x="186" y="710" type="line"/>
      <point x="60" y="710" type="line"/>
    </contour>
    <contour>
      <point x="-61" y="-160" type="line"/>
      <point x="5" y="-160" type="line" smooth="yes"/>
      <point x="128.736" y="-160"/>
      <point x="186" y="-105.584"/>
      <point x="186" y="12" type="curve" smooth="yes"/>
      <point x="186" y="532" type="line"/>
      <point x="60" y="532" type="line"/>
      <point x="60" y="20" type="line" smooth="yes"/>
      <point x="60" y="-32.849"/>
      <point x="42.114" y="-50"/>
      <point x="-13" y="-50" type="curve" smooth="yes"/>
      <point x="-61" y="-50" type="line"/>
    </contour>
  </outline>
</glyph>
<glyph name="k" format="2">
  <advance width="590"/>
  <unicode hex="006B"/>
  <anchor x="256" y="776" name="top"/>
  <anchor x="275" y="-86" name="bottom"/>
  <outline>
    <contour>
      <point x="55" y="0" type="line"/>
      <point x="182" y="0" type="line"/>
      <point x="182" y="707" type="line"/>
      <point x="55" y="707" type="line"/>
    </contour>
    <contour>
      <point x="171.164" y="154.315" type="line"/>
      <point x="561" y="532" type="line"/>
      <point x="398" y="532" type="line"/>
      <point x="171.164" y="295.919" type="line"/>
    </contour>
    <contour>
      <point x="416" y="0" type="line"/>
      <point x="577" y="0" type="line"/>
      <point x="338.127" y="337.538" type="line"/>
      <point x="249.529" y="251.813" type="line"/>
    </contour>
  </outline>
</glyph>
<glyph name="o" format="2">
  <advance width="576"/>
  <unicode hex="006F"/>
  <anchor x="290" y="602" name="top"/>
  <anchor x="290" y="-86" name="bottom"/>
  <anchor x="223" y="0" name="b.cedilla"/>
  <outline>
    <contour>
      <point x="290" y="-9" type="curve" smooth="yes"/>
      <point x="443.034" y="-9"/>
      <point x="530" y="79.778"/>
      <point x="530" y="236" type="curve" smooth="yes"/>
      <point x="530" y="299" type="line" smooth="yes"/>
      <point x="530" y="453.942"/>
      <point x="443.029" y="542"/>
      <point x="290" y="542" type="curve" smooth="yes"/>
      <point x="134.667" y="542"/>
      <point x="47" y="454.333"/>
      <point x="47" y="299" type="curve" smooth="yes"/>
      <point x="47" y="236" type="line" smooth="yes"/>
      <point x="47" y="80.065"/>
      <point x="135.338" y="-9"/>
    </contour>
    <contour>
      <point x="290" y="104" type="curve" smooth="yes"/>
      <point x="211.997" y="104"/>
      <point x="173" y="149"/>
      <point x="173" y="237" type="curve" smooth="yes"/>
      <point x="173" y="297" type="line" smooth="yes"/>
      <point x="173" y="385"/>
      <point x="212" y="429"/>
      <point x="290" y="429" type="curve" smooth="yes"/>
      <point x="365.818" y="429"/>
      <point x="404" y="384.789"/>
      <point x="404" y="297" type="curve" smooth="yes"/>
      <point x="404" y="237" type="line" smooth="yes"/>
      <point x="404" y="149"/>
      <point x="366.003" y="104"/>
    </contour>
  </outline>
</glyph>
<glyph name="q" format="2">
  <advance width="584"/>
  <unicode hex="0071"/>
  <anchor x="284" y="602" name="top"/>
  <anchor x="236" y="-86" name="bottom"/>
  <outline>
    <contour>
      <point x="403" y="-160" type="line"/>
      <point x="529" y="-160" type="line"/>
      <point x="529" y="532" type="line"/>
      <point x="406" y="532" type="line"/>
      <point x="406" y="475" type="line"/>
      <point x="366" y="519.667"/>
      <point x="315.667" y="542"/>
      <point x="255" y="542" type="curve" smooth="yes"/>
      <point x="127.173" y="542"/>
      <point x="47" y="448.721"/>
      <point x="47" y="300" type="curve" smooth="yes"/>
      <point x="47" y="233" type="line" smooth="yes"/>
      <point x="47" y="82.09"/>
      <point x="125.292" y="-9"/>
      <point x="255" y="-9" type="curve" smooth="yes"/>
      <point x="319.67" y="-9"/>
      <point x="369" y="12.333"/>
      <point x="403" y="57" type="curve"/>
    </contour>
    <contour>
      <point x="284" y="104" type="curve" smooth="yes"/>
      <point x="211.728" y="104"/>
      <point x="174" y="150.303"/>
      <point x="174" y="239" type="curve" smooth="yes"/>
      <point x="174" y="294" type="line" smooth="yes"/>
      <point x="174" y="382.342"/>
      <point x="213.054" y="429"/>
      <point x="287" y="429" type="curve" smooth="yes"/>
      <point x="359.954" y="429"/>
      <point x="403" y="380.759"/>
      <point x="403" y="299" type="curve" smooth="yes"/>
      <point x="403" y="231" type="line" smooth="yes"/>
      <point x="403" y="152.367"/>
      <point x="357.679" y="104"/>
    </contour>
  </outline>
</glyph>
<glyph name="r" format="2">
  <advance width="403"/>
  <unicode hex="0072"/>
  <anchor x="207" y="602" name="top"/>
  <anchor x="207" y="-86" name="bottom"/>
  <outline>
    <contour>
      <point x="55" y="0" type="line"/>
      <point x="182" y="0" type="line"/>
      <point x="182" y="295" type="line" smooth="yes"/>
      <point x="182" y="383"/>
      <point x="229" y="432"/>
      <point x="309" y="432" type="curve" smooth="yes"/>
      <point x="336.333" y="432"/>
      <point x="361.667" y="427.667"/>
      <point x="385" y="419" type="curve"/>
      <point x="385" y="540" type="line"/>
      <point x="371.667" y="542.667"/>
      <point x="355" y="544"/>
      <point x="335" y="544" type="curve" smooth="yes"/>
      <point x="271" y="544"/>
      <point x="215" y="520"/>
      <point x="179" y="472" type="curve"/>
      <point x="179" y="532" type="line"/>
      <point x="55" y="532" type="line"/>
    </contour>
  </outline>
</glyph>
<glyph name="v" format="2">
  <advance width="551"/>
  <unicode hex="0076"/>
  <anchor x="276" y="602" name="top"/>
  <anchor x="276" y="-86" name="bottom"/>
  <outline>
    <contour>
      <point x="223" y="0" type="line"/>
      <point x="328" y="0" type="line"/>
      <point x="543" y="532" type="line"/>
      <point x="406" y="532" type="line"/>
      <point x="276" y="171" type="line"/>
      <point x="146" y="532" type="line"/>
      <point x="9" y="532" type="line"/>
    </contour>
  </outline>
</glyph>
<glyph name="x" format="2">
  <advance width="526"/>
  <unicode hex="0078"/>
  <anchor x="259" y="602" name="top"/>
  <anchor x="236" y="-86" name="bottom"/>
  <outline>
    <contour>
      <point x="9" y="0" type="line"/>
      <point x="148" y="0" type="line"/>
      <point x="259" y="178" type="line"/>
      <point x="379" y="0" type="line"/>
      <point x="517" y="0" type="line"/>
      <point x="330" y="278" type="line"/>
      <point x="507" y="532" type="line"/>
      <point x="369" y="532" type="line"/>
      <point x="267" y="371" type="line"/>
      <point x="159" y="532" type="line"/>
      <point x="19" y="532" type="line"/>
      <point x="194" y="274" type="line"/>
    </contour>
  </outline>
</glyph>
<glyph name="z" format="2">
  <advance width="513"/>
  <unicode hex="007A"/>
  <anchor x="259" y="602" name="top"/>
  <anchor x="260" y="-86" name="bottom"/>
  <outline>
    <contour>
      <point x="47" y="0" type="line"/>
      <point x="467" y="0" type="line"/>
      <point x="467" y="106" type="line"/>
      <point x="193" y="106" type="line"/>
      <point x="467" y="426" type="line"/>
      <point x="467" y="532" type="line"/>
      <point x="47" y="532" type="line"/>
      <point x="47" y="426" type="line"/>
      <point x="321" y="426" type="line"/>
      <point x="47" y="106" type="line"/>
    </contour>
  </outline>
</glyph>
<glyph name="asciitilde" format="2">
  <advance width="541"/>
  <unicode hex="007E"/>
  <outline>
    <contour>
      <point x="122" y="201" type="line"/>
      <point x="144.218" y="242.658"/>
      <point x="162.789" y="258"/>
      <point x="191" y="258" type="curve" smooth="yes"/>
      <point x="238.336" y="258"/>
      <point x="284.283" y="200"/>
      <point x="355" y="200" type="curve" smooth="yes"/>
      <point x="417.905" y="200"/>
      <point x="471.121" y="240.271"/>
      <point x="503" y="312" type="curve"/>
      <point x="421" y="362" type="line"/>
      <point x="400.47" y="320.94"/>
      <point x="380.895" y="305"/>
      <point x="351" y="305" type="curve" smooth="yes"/>
      <point x="306.213" y="305"/>
      <point x="255.212" y="362"/>
      <point x="186" y="362" type="curve" smooth="yes"/>
      <point x="124.649" y="362"/>
      <point x="73.324" y="322.979"/>
      <point x="40" y="251" type="curve"/>
    </contour>
  </outline>
</glyph>
<glyph name="exclamdown" format="2">
  <advance width="254"/>
  <unicode hex="00A1"/>
  <outline>
    <contour>
      <point x="59" y="398" type="line"/>
      <point x="196" y="398" type="line"/>
      <point x="196" y="532" type="line"/>
      <point x="59" y="532" type="line"/>
    </contour>
    <contour>
      <point x="55" y="-160" type="line"/>
      <point x="200" y="-160" type="line"/>
      <point x="175" y="297" type="line"/>
      <point x="80" y="297" type="line"/>
    </contour>
  </outline>
</glyph>
<glyph name="cent" format="2">
  <advance width="572"/>
  <unicode hex="00A2"/>
  <outline>
    <contour>
      <point x="256" y="-102" type="line"/>
      <point x="330" y="-102" type="line"/>
      <point x="330" y="-7" type="line"/>
      <point x="453.372" y="5.069"/>
      <point x="525" y="75.962"/>
      <point x="525" y="186" type="curve" smooth="yes"/>
      <point x="525" y="190" type="line"/>
      <point x="401" y="190" type="line"/>
      <point x="401" y="186" type="line" smooth="yes"/>
      <point x="401" y="135.156"/>
      <point x="361.106" y="104"/>
      <point x="296" y="104" type="curve" smooth="yes"/>
      <point x="211.509" y="104"/>
      <point x="173" y="145.64"/>
      <point x="173" y="237" type="curve" smooth="yes"/>
      <point x="173" y="297" type="line" smooth="yes"/>
      <point x="173" y="386.267"/>
      <point x="211.848" y="429"/>
      <point x="293" y="429" type="curve" smooth="yes"/>
      <point x="360.798" y="429"/>
      <point x="402" y="396.492"/>
      <point x="402" y="343" type="curve" smooth="yes"/>
      <point x="402" y="339" type="line"/>
      <point x="526" y="339" type="line"/>
      <point x="526" y="345" type="line" smooth="yes"/>
      <point x="526" y="456.684"/>
      <point x="454.352" y="527.966"/>
      <point x="330" y="540" type="curve"/>
      <point x="330" y="633" type="line"/>
      <point x="256" y="633" type="line"/>
      <point x="256" y="541" type="line"/>
      <point x="121.213" y="527.246"/>
      <point x="47" y="441.316"/>
      <point x="47" y="299" type="curve" smooth="yes"/>
      <point x="47" y="236" type="line" smooth="yes"/>
      <point x="47" y="90.947"/>
      <point x="121.262" y="4.249"/>
      <point x="256" y="-8" type="curve"/>
    </contour>
  </outline>
</glyph>
<glyph name="sterling" format="2">
  <advance width="530"/>
  <unicode hex="00A3"/>
  <outline>
    <contour>
      <point x="49" y="0" type="line"/>
      <point x="508" y="0" type="line"/>
      <point x="508" y="116" type="line"/>
      <point x="199" y="116" type="line"/>
      <point x="222.619" y="139.619"/>
      <point x="234" y="173.111"/>
      <point x="234" y="219" type="curve" smooth="yes"/>
      <point x="234" y="283" type="line"/>
      <point x="400" y="283" type="line"/>
      <point x="400" y="399" type="line"/>
      <point x="234" y="399" type="line"/>
      <point x="234" y="529" type="line" smooth="yes"/>
      <point x="234" y="577.018"/>
      <point x="260.685" y="603"/>
      <point x="310" y="603" type="curve" smooth="yes"/>
      <point x="357.934" y="603"/>
      <point x="383" y="582.055"/>
      <point x="383" y="542" type="curve"/>
      <point x="508" y="542" type="line"/>
      <point x="508" y="651.583"/>
      <point x="433.238" y="717"/>
      <point x="308" y="717" type="curve" smooth="yes"/>
      <point x="176.424" y="717"/>
      <point x="100" y="642.413"/>
      <point x="100" y="514" type="curve" smooth="yes"/>
      <point x="100" y="399" type="line"/>
      <point x="29" y="399" type="line"/>
      <point x="29" y="283" type="line"/>
      <point x="100" y="283" type="line"/>
      <point x="100" y="206" type="line" smooth="yes"/>
      <point x="100" y="151.229"/>
      <point x="86.262" y="125.639"/>
      <point x="49" y="111" type="curve"/>
    </contour>
  </outline>
</glyph>
<glyph name="yen" format="2">
  <advance width="571"/>
  <unicode hex="00A5"/>
  <outline>
    <contour>
      <point x="61" y="120" type="line"/>
      <point x="219" y="120" type="line"/>
      <point x="219" y="0" type="line"/>
      <point x="352" y="0" type="line"/>
      <point x="352" y="120" type="line"/>
      <point x="510" y="120" type="line"/>
      <point x="510" y="210" type="line"/>
      <point x="352" y="210" type="line"/>
      <point x="352" y="266" type="line"/>
      <point x="510" y="266" type="line"/>
      <point x="510" y="356" type="line"/>
      <point x="375" y="356" type="line"/>
      <point x="564" y="707" type="line"/>
      <point x="419" y="707" type="line"/>
      <point x="289" y="423" type="line"/>
      <point x="153" y="707" type="line"/>
      <point x="7" y="707" type="line"/>
      <point x="197" y="356" type="line"/>
      <point x="61" y="356" type="line"/>
      <point x="61" y="266" type="line"/>
      <point x="219" y="266" type="line"/>
      <point x="219" y="210" type="line"/>
      <point x="61" y="210" type="line"/>
    </contour>
  </outline>
</glyph>
<glyph name="dieresis" format="2">
  <advance width="512"/>
  <unicode hex="00A8"/>
  <outline>
    <contour>
      <point x="84" y="601" type="line"/>
      <point x="194" y="601" type="line"/>
      <point x="194" y="720" type="line"/>
      <point x="84" y="720" type="line"/>
    </contour>
    <contour>
      <point x="318" y="601" type="line"/>
      <point x="428" y="601" type="line"/>
      <point x="428" y="720" type="line"/>
      <point x="318" y="720" type="line"/>
    </contour>
  </outline>
</glyph>
<glyph name="copyright" format="2">
  <advance width="802"/>
  <unicode hex="00A9"/>
  <outline>
    <contour>
      <point x="407" y="-9" type="curve" smooth="yes"/>
      <point x="618" y="-9"/>
      <point x="757" y="134"/>
      <point x="757" y="350" type="curve" smooth="yes"/>
      <point x="757" y="567"/>
      <point x="618" y="710"/>
      <point x="407" y="710" type="curve" smooth="yes"/>
      <point x="195" y="710"/>
      <point x="56" y="568"/>
      <point x="56" y="350" type="curve" smooth="yes"/>
      <point x="56" y="133"/>
      <point x="195" y="-9"/>
    </contour>
    <contour>
      <point x="407" y="70" type="curve" smooth="yes"/>
      <point x="240" y="70"/>
      <point x="139" y="176"/>
      <point x="139" y="350" type="curve" smooth="yes"/>
      <point x="139" y="525"/>
      <point x="241" y="632"/>
      <point x="407" y="632" type="curve" smooth="yes"/>
      <point x="572" y="632"/>
      <point x="674" y="524"/>
      <point x="674" y="350" type="curve" smooth="yes"/>
      <point x="674" y="176"/>
      <point x="573" y="70"/>
    </contour>
    <contour>
      <point x="483" y="295" type="line"/>
      <point x="483" y="292" type="line" smooth="yes"/>
      <point x="483" y="255"/>
      <point x="456" y="232"/>
      <point x="412" y="232" type="curve" smooth="yes"/>
      <point x="356" y="232"/>
      <point x="329" y="263"/>
      <point x="329" y="328" type="curve" smooth="yes"/>
      <point x="329" y="372" type="line" smooth="yes"/>
      <point x="329" y="437"/>
      <point x="355" y="467"/>
      <point x="410" y="467" type="curve" smooth="yes"/>
      <point x="455" y="467"/>
      <point x="483" y="444"/>
      <point x="483" y="406" type="curve" smooth="yes"/>
      <point x="483" y="402" type="line"/>
      <point x="572" y="402" type="line"/>
      <point x="572" y="408" type="line" smooth="yes"/>
      <point x="572" y="495"/>
      <point x="509" y="549"/>
      <point x="407" y="549" type="curve" smooth="yes"/>
      <point x="300" y="549"/>
      <point x="238" y="484"/>
      <point x="238" y="373" type="curve" smooth="yes"/>
      <point x="238" y="328" type="line" smooth="yes"/>
      <point x="238" y="216"/>
      <point x="300" y="152"/>
      <point x="407" y="152" type="curve" smooth="yes"/>
      <point x="510" y="152"/>
      <point x="572" y="205"/>
      <point x="572" y="292" type="curve" smooth="yes"/>
      <point x="572" y="295" type="line"/>
    </contour>
  </outline>
</glyph>
<glyph name="threesuperior" format="2">
  <advance width="365"/>
  <unicode hex="00B3"/>
  <outline>
    <contour>
      <point x="20.375" y="557" type="line"/>
      <point x="20.375" y="549" type="line" smooth="yes"/>
      <point x="20.375" y="469.055"/>
      <point x="73.581" y="426"/>
      <point x="172.375" y="426" type="curve" smooth="yes"/>
      <point x="263.698" y="426"/>
      <point x="324.375" y="477.895"/>
      <point x="324.375" y="556" type="curve" smooth="yes"/>
      <point x="324.375" y="564" type="line" smooth="yes"/>
      <point x="324.375" y="615.01"/>
      <point x="299.684" y="651.673"/>
      <point x="258.375" y="662" type="curve"/>
      <point x="294.997" y="677.695"/>
      <point x="316.375" y="708.287"/>
      <point x="316.375" y="745" type="curve" smooth="yes"/>
      <point x="316.375" y="752" type="line" smooth="yes"/>
      <point x="316.375" y="824.892"/>
      <point x="260.946" y="870"/>
      <point x="171.375" y="870" type="curve" smooth="yes"/>
      <point x="74.9" y="870"/>
      <point x="22.375" y="825.935"/>
      <point x="22.375" y="745" type="curve" smooth="yes"/>
      <point x="22.375" y="738" type="line"/>
      <point x="116.375" y="738" type="line"/>
      <point x="116.375" y="746" type="line" smooth="yes"/>
      <point x="116.375" y="771.333"/>
      <point x="133.042" y="784"/>
      <point x="166.375" y="784" type="curve" smooth="yes"/>
      <point x="199.042" y="784"/>
      <point x="215.375" y="770.667"/>
      <point x="215.375" y="744" type="curve" smooth="yes"/>
      <point x="215.375" y="736" type="line"/>
      <point x="214.708" y="709.333"/>
      <point x="196.042" y="696"/>
      <point x="159.375" y="696" type="curve" smooth="yes"/>
      <point x="136.375" y="696" type="line"/>
      <point x="136.375" y="609" type="line"/>
      <point x="160.375" y="609" type="line" smooth="yes"/>
      <point x="201.708" y="609"/>
      <point x="222.375" y="593.333"/>
      <point x="222.375" y="562" type="curve" smooth="yes"/>
      <point x="222.375" y="555" type="line" smooth="yes"/>
      <point x="222.375" y="527.333"/>
      <point x="203.832" y="512"/>
      <point x="170.375" y="512" type="curve" smooth="yes"/>
      <point x="133.708" y="512"/>
      <point x="115.375" y="525"/>
      <point x="115.375" y="551" type="curve" smooth="yes"/>
      <point x="115.375" y="557" type="line"/>
    </contour>
  </outline>
</glyph>
<glyph name="mu" format="2">
  <advance width="585"/>
  <unicode hex="00B5"/>
  <outline>
    <contour>
      <point x="55" y="-160" type="line"/>
      <point x="182" y="-160" type="line"/>
      <point x="182" y="14" type="line"/>
      <point x="207.333" y="0.667"/>
      <point x="237" y="-6"/>
      <point x="271" y="-6" type="curve" smooth="yes"/>
      <point x="330.175" y="-6"/>
      <point x="382.431" y="18.207"/>
      <point x="407" y="57" type="curve"/>
      <point x="407" y="0" type="line"/>
      <point x="530" y="0" type="line"/>
      <point x="530" y="532" type="line"/>
      <point x="403" y="532" type="line"/>
      <point x="403" y="231" type="line" smooth="yes"/>
      <point x="403" y="151.928"/>
      <point x="360.747" y="106"/>
      <point x="288" y="106" type="curve" smooth="yes"/>
      <point x="218.667" y="106"/>
      <point x="182" y="147.509"/>
      <point x="182" y="226" type="curve" smooth="yes"/>
      <point x="182" y="532" type="line"/>
      <point x="55" y="532" type="line"/>
    </contour>
  </outline>
</glyph>
<glyph name="cedilla" format="2">
  <advance width="512"/>
  <unicode hex="00B8"/>
  <outline>
    <contour>
      <point x="146" y="-160" type="line"/>
      <point x="268" y="-160" type="line"/>
      <point x="339" y="13" type="line"/>
      <point x="236" y="13" type="line"/>
    </contour>
  </outline>
</glyph>
<glyph name="onesuperior" format="2">
  <advance width="258"/>
  <unicode hex="00B9"/>
  <outline>
    <contour>
      <point x="103" y="440" type="line"/>
      <point x="208" y="440" type="line"/>
      <point x="208" y="869" type="line"/>
      <point x="103" y="869" type="line"/>
      <point x="12" y="818" type="line"/>
      <point x="12" y="710" type="line"/>
      <point x="103" y="760" type="line"/>
    </contour>
  </outline>
</glyph>
<glyph name="onequarter" format="2">
  <advance width="859"/>
  <unicode hex="00BC"/>
  <outline>
    <contour>
      <point x="106" y="0" type="line"/>
      <point x="209" y="0" type="line"/>
      <point x="664" y="712" type="line"/>
      <point x="560" y="712" type="line"/>
    </contour>
    <contour>
      <point x="103.57" y="279.671" type="line"/>
      <point x="208.57" y="279.671" type="line"/>
      <point x="208.57" y="708.671" type="line"/>
      <point x="103.57" y="708.671" type="line"/>
      <point x="12.57" y="657.671" type="line"/>
      <point x="12.57" y="549.671" type="line"/>
      <point x="103.57" y="599.671" type="line"/>
    </contour>
    <contour>
      <point x="491" y="58" type="line"/>
      <point x="697" y="58" type="line"/>
      <point x="697" y="0" type="line"/>
      <point x="802" y="0" type="line"/>
      <point x="802" y="58" type="line"/>
      <point x="830" y="58" type="line"/>
      <point x="830" y="150" type="line"/>
      <point x="802" y="150" type="line"/>
      <point x="802" y="240" type="line"/>
      <point x="697" y="240" type="line"/>
      <point x="697" y="150" type="line"/>
      <point x="596" y="150" type="line"/>
      <point x="714" y="429" type="line"/>
      <point x="608" y="429" type="line"/>
      <point x="491" y="150" type="line"/>
    </contour>
  </outline>
</glyph>
<glyph name="onehalf" format="2">
  <advance width="877"/>
  <unicode hex="00BD"/>
  <outline>
    <contour>
      <point x="106" y="0" type="line"/>
      <point x="209" y="0" type="line"/>
      <point x="664" y="712" type="line"/>
      <point x="560" y="712" type="line"/>
    </contour>
    <contour>
      <point x="103.57" y="279.671" type="line"/>
      <point x="208.57" y="279.671" type="line"/>
      <point x="208.57" y="708.671" type="line"/>
      <point x="103.57" y="708.671" type="line"/>
      <point x="12.57" y="657.671" type="line"/>
      <point x="12.57" y="549.671" type="line"/>
      <point x="103.57" y="599.671" type="line"/>
    </contour>
    <contour>
      <point x="535.661" y="0" type="line"/>
      <point x="836.661" y="0" type="line"/>
      <point x="836.661" y="91" type="line"/>
      <point x="684.661" y="91" type="line"/>
      <point x="766.661" y="176" type="line" smooth="yes"/>
      <point x="816.014" y="227.159"/>
      <point x="836.661" y="254.495"/>
      <point x="836.661" y="303" type="curve" smooth="yes"/>
      <point x="836.661" y="312" type="line" smooth="yes"/>
      <point x="836.661" y="387.592"/>
      <point x="776.581" y="437"/>
      <point x="684.661" y="437" type="curve" smooth="yes"/>
      <point x="589.042" y="437"/>
      <point x="531.661" y="389.745"/>
      <point x="531.661" y="311" type="curve" smooth="yes"/>
      <point x="531.661" y="301" type="line"/>
      <point x="632.661" y="301" type="line"/>
      <point x="632.661" y="308" type="line" smooth="yes"/>
      <point x="632.661" y="333.728"/>
      <point x="650.145" y="348"/>
      <point x="681.661" y="348" type="curve" smooth="yes"/>
      <point x="713.661" y="348"/>
      <point x="729.661" y="334"/>
      <point x="729.661" y="306" type="curve" smooth="yes"/>
      <point x="729.661" y="300" type="line" smooth="yes"/>
      <point x="729.661" y="281.241"/>
      <point x="717.505" y="264.994"/>
      <point x="693.661" y="241" type="curve" smooth="yes"/>
      <point x="535.661" y="82" type="line"/>
    </contour>
  </outline>
</glyph>
<glyph name="questiondown" format="2">
  <advance width="512"/>
  <unicode hex="00BF"/>
  <outline>
    <contour>
      <point x="198" y="401" type="line"/>
      <point x="332" y="401" type="line"/>
      <point x="332" y="532" type="line"/>
      <point x="198" y="532" type="line"/>
    </contour>
    <contour>
      <point x="360" y="27" type="line"/>
      <point x="358.638" y="-28.83"/>
      <point x="328" y="-55"/>
      <point x="264" y="-55" type="curve" smooth="yes"/>
      <point x="199.769" y="-55"/>
      <point x="166" y="-29.156"/>
      <point x="166" y="20" type="curve" smooth="yes"/>
      <point x="166" y="51.662"/>
      <point x="178.664" y="74.012"/>
      <point x="217" y="110" type="curve" smooth="yes"/>
      <point x="266" y="156" type="line" smooth="yes"/>
      <point x="315.584" y="202.548"/>
      <point x="329" y="233.213"/>
      <point x="329" y="300" type="curve" smooth="yes"/>
      <point x="329" y="333" type="line"/>
      <point x="202" y="333" type="line"/>
      <point x="202" y="315" type="line" smooth="yes"/>
      <point x="202" y="268.111"/>
      <point x="192.227" y="246.44"/>
      <point x="156" y="213" type="curve" smooth="yes"/>
      <point x="104" y="165" type="line" smooth="yes"/>
      <point x="56.776" y="121.408"/>
      <point x="35" y="73.123"/>
      <point x="35" y="12" type="curve" smooth="yes"/>
      <point x="35" y="-100.803"/>
      <point x="121.306" y="-170"/>
      <point x="262" y="-170" type="curve" smooth="yes"/>
      <point x="407.333" y="-170"/>
      <point x="481.333" y="-104.333"/>
      <point x="484" y="27" type="curve"/>
    </contour>
  </outline>
</glyph>
<glyph name="AE" format="2">
  <advance width="1018"/>
  <unicode hex="00C6"/>
  <anchor x="568" y="776" name="top"/>
  <outline>
    <contour>
      <point x="4" y="0" type="line"/>
      <point x="154" y="0" type="line"/>
      <point x="233" y="144" type="line"/>
      <point x="482" y="144" type="line"/>
      <point x="482" y="0" type="line"/>
      <point x="983" y="0" type="line"/>
      <point x="983" y="117" type="line"/>
      <point x="617" y="117" type="line"/>
      <point x="617" y="298" type="line"/>
      <point x="931" y="298" type="line"/>
      <point x="931" y="415" type="line"/>
      <point x="617" y="415" type="line"/>
      <point x="617" y="590" type="line"/>
      <point x="983" y="590" type="line"/>
      <point x="983" y="707" type="line"/>
      <point x="413" y="707" type="line"/>
    </contour>
    <contour>
      <point x="295" y="256" type="line"/>
      <point x="482" y="594" type="line"/>
      <point x="482" y="256" type="line"/>
    </contour>
  </outline>
</glyph>
<glyph name="Eth" format="2">
  <advance width="710"/>
  <unicode hex="00D0"/>
  <outline>
    <component base="D" xOffset="33"/>
    <contour>
      <point x="28" y="301" type="line"/>
      <point x="388" y="301" type="line"/>
      <point x="388" y="419" type="line"/>
      <point x="28" y="419" type="line"/>
    </contour>
  </outline>
</glyph>
<glyph name="Thorn" format="2">
  <advance width="643"/>
  <unicode hex="00DE"/>
  <outline>
    <contour>
      <point x="60" y="0" type="line"/>
      <point x="195" y="0" type="line"/>
      <point x="195" y="153" type="line"/>
      <point x="360" y="153" type="line" smooth="yes"/>
      <point x="523.889" y="153"/>
      <point x="618" y="231.791"/>
      <point x="618" y="369" type="curve" smooth="yes"/>
      <point x="618" y="509.257"/>
      <point x="525.931" y="590"/>
      <point x="366" y="590" type="curve" smooth="yes"/>
      <point x="195" y="590" type="line"/>
      <point x="195" y="707" type="line"/>
      <point x="60" y="707" type="line"/>
    </contour>
    <contour>
      <point x="195" y="269" type="line"/>
      <point x="195" y="473" type="line"/>
      <point x="371" y="473" type="line" smooth="yes"/>
      <point x="445.032" y="473"/>
      <point x="484" y="437.481"/>
      <point x="484" y="370" type="curve" smooth="yes"/>
      <point x="484" y="303.333"/>
      <point x="446.333" y="269.667"/>
      <point x="371" y="269" type="curve"/>
    </contour>
  </outline>
</glyph>
<glyph name="germandbls" format="2">
  <advance width="590"/>
  <unicode hex="00DF"/>
  <outline>
    <contour>
      <point x="55" y="0" type="line"/>
      <point x="182" y="0" type="line"/>
      <point x="182" y="511" type="line" smooth="yes"/>
      <point x="182" y="579.644"/>
      <point x="216.495" y="608"/>
      <point x="300" y="608" type="curve" smooth="yes"/>
      <point x="374.627" y="608"/>
      <point x="409" y="586.872"/>
      <point x="409" y="541" type="curve" smooth="yes"/>
      <point x="409" y="497.667"/>
      <point x="380" y="476"/>
      <point x="322" y="476" type="curve" smooth="yes"/>
      <point x="286" y="476" type="line"/>
      <point x="286" y="371" type="line"/>
      <point x="312" y="371" type="line" smooth="yes"/>
      <point x="394.278" y="371"/>
      <point x="419" y="339.809"/>
      <point x="419" y="236" type="curve" smooth="yes"/>
      <point x="419" y="130.767"/>
      <point x="398.391" y="102"/>
      <point x="323" y="102" type="curve" smooth="yes"/>
      <point x="286" y="102" type="line"/>
      <point x="286" y="-4" type="line"/>
      <point x="333" y="-4" type="line" smooth="yes"/>
      <point x="490.143" y="-4"/>
      <point x="545" y="58.102"/>
      <point x="545" y="236" type="curve" smooth="yes"/>
      <point x="545" y="345.439"/>
      <point x="522.512" y="398.744"/>
      <point x="464" y="428" type="curve"/>
      <point x="512.483" y="451.586"/>
      <point x="535" y="489.643"/>
      <point x="535" y="548" type="curve" smooth="yes"/>
      <point x="535" y="657.09"/>
      <point x="451.339" y="717"/>
      <point x="299" y="717" type="curve" smooth="yes"/>
      <point x="132.542" y="717"/>
      <point x="55" y="648.038"/>
      <point x="55" y="500" type="curve" smooth="yes"/>
    </contour>
  </outline>
</glyph>
<glyph name="divide" format="2">
  <advance width="541"/>
  <unicode hex="00F7"/>
  <outline>
    <contour>
      <point x="270" y="385" type="curve" smooth="yes"/>
      <point x="308.667" y="385"/>
      <point x="339" y="415.333"/>
      <point x="339" y="454" type="curve" smooth="yes"/>
      <point x="339" y="491.72"/>
      <point x="308.275" y="522"/>
      <point x="270" y="522" type="curve" smooth="yes"/>
      <point x="232.284" y="522"/>
      <point x="203" y="492.279"/>
      <point x="203" y="454" type="curve" smooth="yes"/>
      <point x="203" y="415.2"/>
      <point x="232.324" y="385"/>
    </contour>
    <contour>
      <point x="49" y="224" type="line"/>
      <point x="493" y="224" type="line"/>
      <point x="493" y="341" type="line"/>
      <point x="49" y="341" type="line"/>
    </contour>
    <contour>
      <point x="270" y="44" type="curve" smooth="yes"/>
      <point x="309.333" y="44"/>
      <point x="339" y="73.667"/>
      <point x="339" y="113" type="curve" smooth="yes"/>
      <point x="339" y="150.72"/>
      <point x="308.275" y="181"/>
      <point x="270" y="181" type="curve" smooth="yes"/>
      <point x="232.284" y="181"/>
      <point x="203" y="151.279"/>
      <point x="203" y="113" type="curve" smooth="yes"/>
      <point x="203" y="74.2"/>
      <point x="232.324" y="44"/>
    </contour>
  </outline>
</glyph>
<glyph name="gcommaaccent" format="2">
  <advance width="584"/>
  <unicode hex="0123"/>
  <outline>
    <component base="g"/>
    <contour>
      <point x="232" y="564" type="line"/>
      <point x="332" y="564" type="line"/>
      <point x="332" y="707" type="line"/>
      <point x="232" y="626" type="line"/>
    </contour>
  </outline>
</glyph>
<glyph name="Hbar" format="2">
  <advance width="687"/>
  <unicode hex="0126"/>
  <outline>
    <contour>
      <point x="17" y="515" type="line"/>
      <point x="674" y="515" type="line"/>
      <point x="674" y="633" type="line"/>
      <point x="17" y="633" type="line"/>
    </contour>
    <contour>
      <point x="174.64" y="299" type="line"/>
      <point x="513.36" y="299" type="line"/>
      <point x="513.36" y="416" type="line"/>
      <point x="174.64" y="416" type="line"/>
    </contour>
    <contour>
      <point x="493" y="0" type="line"/>
      <point x="627" y="0" type="line"/>
      <point x="627" y="707" type="line"/>
      <point x="493" y="707" type="line"/>
    </contour>
    <contour>
      <point x="60" y="0" type="line"/>
      <point x="195" y="0" type="line"/>
      <point x="195" y="707" type="line"/>
      <point x="60" y="707" type="line"/>
    </contour>
  </outline>
</glyph>
<glyph name="dotlessi" format="2">
  <advance width="246"/>
  <unicode hex="0131"/>
  <anchor x="123" y="602" name="top"/>
  <outline>
    <contour>
      <point x="60" y="0" type="line"/>
      <point x="186" y="0" type="line"/>
      <point x="186" y="532" type="line"/>
      <point x="60" y="532" type="line"/>
    </contour>
  </outline>
</glyph>
<glyph name="IJ" format="2">
  <advance width="692"/>
  <unicode hex="0132"/>
  <outline>
    <contour>
      <point x="68" y="185" type="line"/>
      <point x="96.42" y="66.582"/>
      <point x="201.683" y="-6"/>
      <point x="345" y="-6" type="curve" smooth="yes"/>
      <point x="519.821" y="-6"/>
      <point x="632" y="95.625"/>
      <point x="632" y="254" type="curve" smooth="yes"/>
      <point x="632" y="707" type="line"/>
      <point x="498" y="707" type="line"/>
      <point x="498" y="258" type="line" smooth="yes"/>
      <point x="498" y="163.717"/>
      <point x="443.131" y="111"/>
      <point x="345" y="111" type="curve" smooth="yes"/>
      <point x="278.048" y="111"/>
      <point x="229.361" y="137.491"/>
      <point x="209" y="185" type="curve"/>
    </contour>
    <contour>
      <point x="60" y="352" type="line"/>
      <point x="195" y="352" type="line"/>
      <point x="195" y="707" type="line"/>
      <point x="60" y="707" type="line"/>
    </contour>
  </outline>
</glyph>
<glyph name="lcaron" format="2">
  <advance width="389"/>
  <unicode hex="013E"/>
  <outline>
    <component base="l"/>
    <contour>
      <point x="244" y="481" type="line"/>
      <point x="344" y="562" type="line"/>
      <point x="344" y="707" type="line"/>
      <point x="244" y="707" type="line"/>
    </contour>
  </outline>
</glyph>
<glyph name="OE" format="2">
  <advance width="1038"/>
  <unicode hex="0152"/>
  <outline>
    <contour>
      <point x="514" y="0" type="line"/>
      <point x="1002" y="0" type="line"/>
      <point x="1002" y="117" type="line"/>
      <point x="643" y="117" type="line"/>
      <point x="643" y="298" type="line"/>
      <point x="950" y="298" type="line"/>
      <point x="950" y="415" type="line"/>
      <point x="643" y="415" type="line"/>
      <point x="643" y="590" type="line"/>
      <point x="1002" y="590" type="line"/>
      <point x="1002" y="707" type="line"/>
      <point x="514" y="707" type="line"/>
      <point x="514" y="674" type="line"/>
      <point x="466" y="704.667"/>
      <point x="409.667" y="720"/>
      <point x="345" y="720" type="curve" smooth="yes"/>
      <point x="160.412" y="720"/>
      <point x="56" y="608"/>
      <point x="56" y="410" type="curve" smooth="yes"/>
      <point x="56" y="299" type="line" smooth="yes"/>
      <point x="56" y="100.949"/>
      <point x="159.282" y="-11"/>
      <point x="342" y="-11" type="curve" smooth="yes"/>
      <point x="408" y="-11"/>
      <point x="465.333" y="4.667"/>
      <point x="514" y="36" type="curve"/>
    </contour>
    <contour>
      <point x="351" y="110" type="curve" smooth="yes"/>
      <point x="242.829" y="110"/>
      <point x="191" y="171.871"/>
      <point x="191" y="301" type="curve" smooth="yes"/>
      <point x="191" y="402" type="line" smooth="yes"/>
      <point x="191" y="537.5"/>
      <point x="242.6" y="602"/>
      <point x="351" y="602" type="curve" smooth="yes"/>
      <point x="456.333" y="602"/>
      <point x="509" y="535.333"/>
      <point x="509" y="402" type="curve" smooth="yes"/>
      <point x="509" y="301" type="line" smooth="yes"/>
      <point x="509" y="173.667"/>
      <point x="456.333" y="110"/>
    </contour>
  </outline>
</glyph>
<glyph name="Schwa" format="2">
  <advance width="679"/>
  <unicode hex="018F"/>
  <outline>
    <contour>
      <point x="180" y="469" type="line"/>
      <point x="180" y="475" type="line" smooth="yes"/>
      <point x="180" y="548.093"/>
      <point x="241.582" y="599"/>
      <point x="330" y="599" type="curve" smooth="yes"/>
      <point x="442.88" y="599"/>
      <point x="498" y="536.333"/>
      <point x="498" y="408" type="curve" smooth="yes"/>
      <point x="498" y="307" type="line" smooth="yes"/>
      <point x="498" y="171.934"/>
      <point x="443.78" y="107"/>
      <point x="331" y="107" type="curve" smooth="yes"/>
      <point x="237.266" y="107"/>
      <point x="180" y="175.543"/>
      <point x="180" y="255" type="curve" smooth="yes"/>
      <point x="180" y="380.076" type="line"/>
      <point x="46" y="380.076" type="line"/>
      <point x="46" y="271" type="line" smooth="yes"/>
      <point x="46" y="93.909"/>
      <point x="152.025" y="-11"/>
      <point x="331" y="-11" type="curve" smooth="yes"/>
      <point x="526.333" y="-11"/>
      <point x="633" y="98.492"/>
      <point x="633" y="299" type="curve" smooth="yes"/>
      <point x="633" y="410" type="line" smooth="yes"/>
      <point x="633" y="610.082"/>
      <point x="526.273" y="720"/>
      <point x="332" y="720" type="curve" smooth="yes"/>
      <point x="165.296" y="720"/>
      <point x="47" y="618.307"/>
      <point x="47" y="475" type="curve" smooth="yes"/>
      <point x="47" y="469" type="line"/>
    </contour>
    <contour>
      <point x="66.297" y="380" type="line"/>
      <point x="66.297" y="263" type="line"/>
      <point x="582.262" y="263" type="line"/>
      <point x="582.262" y="380" type="line"/>
    </contour>
  </outline>
</glyph>
<glyph name="lbar" format="2">
  <advance width="321"/>
  <unicode hex="019A"/>
  <outline>
    <component base="l"/>
    <contour>
      <point x="7" y="345" type="line"/>
      <point x="304" y="345" type="line"/>
      <point x="304" y="463" type="line"/>
      <point x="7" y="463" type="line"/>
    </contour>
  </outline>
</glyph>
<glyph name="circumflex" format="2">
  <advance width="512"/>
  <unicode hex="02C6"/>
  <outline>
    <contour>
      <point x="71" y="591" type="line"/>
      <point x="178" y="591" type="line"/>
      <point x="256" y="673" type="line"/>
      <point x="334" y="591" type="line"/>
      <point x="440" y="591" type="line"/>
      <point x="302" y="745" type="line"/>
      <point x="209" y="745" type="line"/>
    </contour>
  </outline>
</glyph>
<glyph name="caron" format="2">
  <advance width="512"/>
  <unicode hex="02C7"/>
  <outline>
    <contour>
      <point x="210" y="584" type="line"/>
      <point x="303" y="584" type="line"/>
      <point x="441" y="738" type="line"/>
      <point x="335" y="738" type="line"/>
      <point x="257" y="657" type="line"/>
      <point x="178" y="738" type="line"/>
      <point x="72" y="738" type="line"/>
    </contour>
  </outline>
</glyph>
<glyph name="ring" format="2">
  <advance width="512"/>
  <unicode hex="02DA"/>
  <outline>
    <contour>
      <point x="148" y="696" type="curve" smooth="yes"/>
      <point x="148" y="635.941"/>
      <point x="193.37" y="591"/>
      <point x="254" y="591" type="curve" smooth="yes"/>
      <point x="314" y="591"/>
      <point x="359" y="636"/>
      <point x="359" y="696" type="curve" smooth="yes"/>
      <point x="359" y="757.238"/>
      <point x="314.093" y="803"/>
      <point x="254" y="803" type="curve" smooth="yes"/>
      <point x="193.62" y="803"/>
      <point x="148" y="756.95"/>
    </contour>
    <contour>
      <point x="254" y="647" type="curve" smooth="yes"/>
      <point x="227.878" y="647"/>
      <point x="207" y="668.766"/>
      <point x="207" y="696" type="curve" smooth="yes"/>
      <point x="207" y="724.851"/>
      <point x="226.88" y="746"/>
      <point x="254" y="746" type="curve" smooth="yes"/>
      <point x="281.413" y="746"/>
      <point x="302" y="724.556"/>
      <point x="302" y="696" type="curve" smooth="yes"/>
      <point x="302" y="668.908"/>
      <point x="280.539" y="647"/>
    </contour>
  </outline>
</glyph>
<glyph name="uni0303" format="2">
  <unicode hex="0303"/>
  <anchor x="0" y="602" name="_top"/>
  <outline>
    <contour>
      <point x="-163.5" y="596" type="line"/>
      <point x="-119.603" y="628.923"/>
      <point x="-104.033" y="636"/>
      <point x="-75.5" y="636" type="curve" smooth="yes"/>
      <point x="-17.958" y="636"/>
      <point x="0.661" y="597"/>
      <point x="70.5" y="597" type="curve" smooth="yes"/>
      <point x="105.771" y="597"/>
      <point x="130.728" y="608.539"/>
      <point x="163.5" y="640" type="curve"/>
      <point x="163.5" y="734" type="line"/>
      <point x="119.382" y="700.176"/>
      <point x="104.329" y="693"/>
      <point x="77.5" y="693" type="curve" smooth="yes"/>
      <point x="21.016" y="693"/>
      <point x="0.543" y="732"/>
      <point x="-69.5" y="732" type="curve" smooth="yes"/>
      <point x="-103.686" y="732"/>
      <point x="-129.691" y="720.104"/>
      <point x="-163.5" y="689" type="curve"/>
    </contour>
  </outline>
</glyph>
<glyph name="uni0307" format="2">
  <unicode hex="0307"/>
  <anchor x="0" y="602" name="_top"/>
  <outline>
    <contour>
      <point x="-66" y="608" type="line"/>
      <point x="66" y="608" type="line"/>
      <point x="66" y="710" type="line"/>
      <point x="-66" y="710" type="line"/>
    </contour>
  </outline>
</glyph>
<glyph name="uni030B" format="2">
  <unicode hex="030B"/>
  <anchor x="0" y="602" name="_top"/>
  <outline>
    <contour>
      <point x="-155" y="602" type="line"/>
      <point x="-45" y="602" type="line"/>
      <point x="96" y="738" type="line"/>
      <point x="-44" y="738" type="line"/>
    </contour>
    <contour>
      <point x="35" y="602" type="line"/>
      <point x="145" y="602" type="line"/>
      <point x="286" y="738" type="line"/>
      <point x="146" y="738" type="line"/>
    </contour>
  </outline>
</glyph>
<glyph name="uni030C" format="2">
  <unicode hex="030C"/>
  <anchor x="0" y="602" name="_top"/>
  <outline>
    <contour>
      <point x="-46.5" y="584" type="line"/>
      <point x="46.5" y="584" type="line"/>
      <point x="184.5" y="738" type="line"/>
      <point x="78.5" y="738" type="line"/>
      <point x="0.5" y="657" type="line"/>
      <point x="-78.5" y="738" type="line"/>
      <point x="-184.5" y="738" type="line"/>
    </contour>
  </outline>
</glyph>
<glyph name="uni030F" format="2">
  <unicode hex="030F"/>
  <anchor x="0" y="602" name="_top"/>
  <outline>
    <contour>
      <point x="-127.075" y="602" type="line"/>
      <point x="-7.07468" y="602" type="line"/>
      <point x="-142.075" y="738" type="line"/>
      <point x="-307.075" y="738" type="line"/>
    </contour>
    <contour>
      <point x="93.2131" y="602" type="line"/>
      <point x="213.213" y="602" type="line"/>
      <point x="78.2131" y="738" type="line"/>
      <point x="-86.7869" y="738" type="line"/>
    </contour>
  </outline>
</glyph>
<glyph name="Decyr" format="2">
  <advance width="755"/>
  <unicode hex="0414"/>
  <outline>
    <contour>
      <point x="409.55" y="-0.06" type="line"/>
      <point x="610" y="-0.06" type="line"/>
      <point x="610" y="-170" type="line"/>
      <point x="745" y="-170" type="line"/>
      <point x="745" y="116.93" type="line"/>
      <point x="409.55" y="116.93" type="line"/>
    </contour>
    <contour>
      <point x="93.227" y="0" type="line"/>
      <point x="219.518" y="75.096"/>
      <point x="311.057" y="224.128"/>
      <point x="325" y="377.346" type="curve" smooth="yes"/>
      <point x="355" y="707.01" type="line"/>
      <point x="220" y="707" type="line"/>
      <point x="190" y="438.576" type="line" smooth="yes"/>
      <point x="171.887" y="276.51"/>
      <point x="130.065" y="173.04"/>
      <point x="60" y="116.946" type="curve"/>
    </contour>
    <contour>
      <point x="540" y="0" type="line"/>
      <point x="675" y="0" type="line"/>
      <point x="675" y="707.01" type="line"/>
      <point x="540" y="707" type="line"/>
    </contour>
    <contour>
      <point x="224.557" y="590" type="line"/>
      <point x="585" y="590" type="line"/>
      <point x="585" y="707" type="line"/>
      <point x="224.557" y="707" type="line"/>
    </contour>
    <contour>
      <point x="289.557" y="-0.067" type="line"/>
      <point x="430" y="-0.067" type="line"/>
      <point x="430" y="116.933" type="line"/>
      <point x="289.557" y="116.933" type="line"/>
    </contour>
    <contour>
      <point x="10" y="-170" type="line"/>
      <point x="145" y="-170" type="line"/>
      <point x="145" y="-0.06" type="line"/>
      <point x="310" y="-0.06" type="line"/>
      <point x="310" y="116.93" type="line"/>
      <point x="10" y="116.92" type="line"/>
    </contour>
  </outline>
</glyph>
<glyph name="Ucyr" format="2">
  <advance width="621"/>
  <unicode hex="0423"/>
  <anchor x="313" y="776" name="top"/>
  <outline>
    <contour>
      <point x="122.529" y="0" type="line"/>
      <point x="153.901" y="0" type="line" smooth="yes"/>
      <point x="231.814" y="0"/>
      <point x="263.977" y="26.717"/>
      <point x="323.306" y="140.723" type="curve" smooth="yes"/>
      <point x="618" y="707" type="line"/>
      <point x="467" y="707" type="line"/>
      <point x="268.832" y="280.155" type="line"/>
      <point x="287.127" y="314.867" type="line"/>
      <point x="237.162" y="219.793" type="line" smooth="yes"/>
      <point x="199.56" y="148.242"/>
      <point x="173.381" y="118.38"/>
      <point x="148.259" y="118.38" type="curve" smooth="yes"/>
      <point x="122.529" y="118.38" type="line"/>
    </contour>
    <contour>
      <point x="248.968" y="219.793" type="line"/>
      <point x="331.651" y="347.373" type="line"/>
      <point x="156" y="707" type="line"/>
      <point x="4" y="707" type="line"/>
    </contour>
  </outline>
</glyph>
<glyph name="Shacyr" format="2">
  <advance width="824"/>
  <unicode hex="0428"/>
  <anchor x="677" y="695" name="top"/>
  <outline>
    <contour>
      <point x="60" y="0" type="line"/>
      <point x="194" y="0" type="line"/>
      <point x="194" y="707" type="line"/>
      <point x="60" y="707" type="line"/>
    </contour>
    <contour>
      <point x="344.36" y="0" type="line"/>
      <point x="478.36" y="0" type="line"/>
      <point x="478.36" y="707" type="line"/>
      <point x="344.36" y="707" type="line"/>
    </contour>
    <contour>
      <point x="629.206" y="0" type="line"/>
      <point x="763.206" y="0" type="line"/>
      <point x="763.206" y="707" type="line"/>
      <point x="629.206" y="707" type="line"/>
    </contour>
    <contour>
      <point x="126.557" y="-0.067" type="line"/>
      <point x="717" y="-0.067" type="line"/>
      <point x="717" y="116.933" type="line"/>
      <point x="126.557" y="116.933" type="line"/>
    </contour>
  </outline>
</glyph>
<glyph name="Ereversedcyr" format="2">
  <advance width="679"/>
  <unicode hex="042D"/>
  <anchor x="332" y="776" name="top"/>
  <outline>
    <component base="C" xScale="-1" xOffset="689"/>
    <contour>
      <point x="243.542" y="299" type="line"/>
      <point x="582.262" y="299" type="line"/>
      <point x="582.262" y="416" type="line"/>
      <point x="243.542" y="416" type="line"/>
    </contour>
  </outline>
</glyph>
<glyph name="becyr" format="2">
  <advance width="576"/>
  <unicode hex="0431"/>
  <outline>
    <contour>
      <point x="290" y="-9" type="curve" smooth="yes"/>
      <point x="443.034" y="-9"/>
      <point x="530" y="79.778"/>
      <point x="530" y="236" type="curve" smooth="yes"/>
      <point x="530" y="243" type="line" smooth="yes"/>
      <point x="530" y="397.942"/>
      <point x="443.029" y="486"/>
      <point x="317.305" y="486" type="curve" smooth="yes"/>
      <point x="256.021" y="486"/>
      <point x="203.119" y="462.39"/>
      <point x="173.097" y="421.611" type="curve"/>
      <point x="47" y="421.869" type="line"/>
      <point x="47" y="236" type="line" smooth="yes"/>
      <point x="47" y="80.065"/>
      <point x="135.338" y="-9"/>
    </contour>
    <contour>
      <point x="290" y="104" type="curve" smooth="yes"/>
      <point x="211.997" y="104"/>
      <point x="173" y="149"/>
      <point x="173" y="237" type="curve" smooth="yes"/>
      <point x="173" y="241" type="line" smooth="yes"/>
      <point x="173" y="329"/>
      <point x="212" y="373"/>
      <point x="290" y="373" type="curve" smooth="yes"/>
      <point x="365.818" y="373"/>
      <point x="404" y="328.789"/>
      <point x="404" y="241" type="curve" smooth="yes"/>
      <point x="404" y="237" type="line" smooth="yes"/>
      <point x="404" y="149"/>
      <point x="366.003" y="104"/>
    </contour>
    <contour>
      <point x="47" y="366.178" type="line"/>
      <point x="170.095" y="365.884" type="line"/>
      <point x="170.095" y="421.6" type="line" smooth="yes"/>
      <point x="170.095" y="551.688"/>
      <point x="373.548" y="514.717"/>
      <point x="458.274" y="569.763" type="curve"/>
      <point x="458.274" y="707" type="line"/>
      <point x="302.88" y="621.262"/>
      <point x="47" y="710.086"/>
      <point x="47" y="421.783" type="curve" smooth="yes"/>
    </contour>
  </outline>
</glyph>
<glyph name="gecyr" format="2">
  <advance width="403"/>
  <unicode hex="0433"/>
  <anchor x="222" y="602" name="top"/>
  <outline>
    <contour>
      <point x="385" y="419" type="line"/>
      <point x="385" y="532" type="line"/>
      <point x="55" y="532" type="line"/>
      <point x="55" y="419.301" type="line"/>
    </contour>
    <contour>
      <point x="55" y="0" type="line"/>
      <point x="182" y="0" type="line"/>
      <point x="182" y="532.031" type="line"/>
      <point x="55" y="532" type="line"/>
    </contour>
  </outline>
</glyph>
<glyph name="decyr" format="2">
  <advance width="668"/>
  <unicode hex="0434"/>
  <outline>
    <contour>
      <point x="521.795" y="-170" type="line"/>
      <point x="647.795" y="-170" type="line"/>
      <point x="647.795" y="113.107" type="line"/>
      <point x="501.795" y="113.107" type="line"/>
      <point x="501.795" y="-0.455" type="line"/>
      <point x="521.795" y="-0.455" type="line"/>
    </contour>
    <contour>
      <point x="20" y="-170" type="line"/>
      <point x="146" y="-170" type="line"/>
      <point x="146" y="113" type="line"/>
      <point x="20" y="113" type="line"/>
    </contour>
    <contour>
      <point x="437" y="0" type="line"/>
      <point x="563" y="0" type="line"/>
      <point x="563" y="532" type="line"/>
      <point x="437" y="532" type="line"/>
    </contour>
    <contour>
      <point x="68.382" y="112.699" type="curve"/>
      <point x="100.226" y="0" type="line"/>
      <point x="224.338" y="0"/>
      <point x="258.557" y="158.233"/>
      <point x="266" y="259.608" type="curve" smooth="yes"/>
      <point x="286" y="532" type="line"/>
      <point x="160" y="532" type="line"/>
      <point x="140" y="291.99" type="line" smooth="yes"/>
      <point x="134.709" y="228.499"/>
      <point x="115.254" y="112.699"/>
    </contour>
    <contour>
      <point x="56.934" y="-0.000119019" type="line"/>
      <point x="456.599" y="-0.301119" type="line"/>
      <point x="456.599" y="112.699" type="line"/>
      <point x="56.934" y="112.699" type="line"/>
    </contour>
    <contour>
      <point x="196" y="418.559" type="line"/>
      <point x="456.599" y="419.258" type="line"/>
      <point x="456.599" y="532.258" type="line"/>
      <point x="196" y="532.258" type="line"/>
    </contour>
  </outline>
</glyph>
<glyph name="zhecyr" format="2">
  <advance width="933"/>
  <unicode hex="0436"/>
  <outline>
    <component base="kacyr" xOffset="348"/>
    <contour>
      <point x="394" y="313.35" type="line"/>
      <point x="187" y="532" type="line"/>
      <point x="24" y="532" type="line"/>
      <point x="275.253" y="269.093" type="line"/>
    </contour>
    <contour>
      <point x="169" y="0" type="line"/>
      <point x="335" y="252" type="line"/>
      <point x="247" y="338" type="line"/>
      <point x="8" y="0" type="line"/>
    </contour>
    <contour>
      <point x="424" y="227" type="line"/>
      <point x="424" y="339" type="line"/>
      <point x="264" y="339" type="line"/>
      <point x="264" y="227" type="line"/>
    </contour>
  </outline>
</glyph>
<glyph name="icyr" format="2">
  <advance width="635"/>
  <unicode hex="0438"/>
  <anchor x="313" y="602" name="top"/>
  <outline>
    <contour>
      <point x="454" y="0" type="line"/>
      <point x="580" y="0" type="line"/>
      <point x="580" y="532" type="line"/>
      <point x="472" y="532" type="line"/>
      <point x="466.6" y="492"/>
      <point x="454" y="362"/>
      <point x="454" y="322" type="curve" smooth="yes"/>
    </contour>
    <contour>
      <point x="55" y="0" type="line"/>
      <point x="163" y="0" type="line"/>
      <point x="173.8" y="40"/>
      <point x="181" y="170"/>
      <point x="181" y="210" type="curve" smooth="yes"/>
      <point x="181" y="532" type="line"/>
      <point x="55" y="532" type="line"/>
    </contour>
    <contour>
      <point x="127" y="0" type="line"/>
      <point x="191" y="0" type="line"/>
      <point x="431" y="322" type="line" smooth="yes"/>
      <point x="445.454" y="341.393"/>
      <point x="451.109" y="353.204"/>
      <point x="454" y="368" type="curve"/>
      <point x="508" y="368" type="line"/>
      <point x="508" y="532" type="line"/>
      <point x="444" y="532" type="line"/>
      <point x="204" y="210" type="line" smooth="yes"/>
      <point x="193.546" y="195.974"/>
      <point x="185.985" y="178.9"/>
      <point x="181" y="164" type="curve"/>
      <point x="127" y="164" type="line"/>
    </contour>
  </outline>
</glyph>
<glyph name="checyr" format="2">
  <advance width="585"/>
  <unicode hex="0447"/>
  <outline>
    <contour>
      <point x="259.523" y="141" type="curve" smooth="yes"/>
      <point x="347.699" y="141"/>
      <point x="392.791" y="152.51"/>
      <point x="446" y="181.782" type="curve"/>
      <point x="446" y="280" type="line"/>
      <point x="404" y="280" type="line"/>
      <point x="376.916" y="262.478"/>
      <point x="337.958" y="254"/>
      <point x="293" y="254" type="curve" smooth="yes"/>
      <point x="217.555" y="254"/>
      <point x="181" y="294.039"/>
      <point x="181" y="379" type="curve" smooth="yes"/>
      <point x="181" y="532" type="line"/>
      <point x="55" y="532" type="line"/>
      <point x="55" y="373" type="line" smooth="yes"/>
      <point x="55" y="220.313"/>
      <point x="124.92" y="141"/>
    </contour>
    <contour>
      <point x="404" y="0" type="line"/>
      <point x="530" y="0" type="line"/>
      <point x="530" y="532" type="line"/>
      <point x="404" y="532" type="line"/>
    </contour>
  </outline>
</glyph>
<glyph name="shchacyr" format="2">
  <advance width="896"/>
  <unicode hex="0449"/>
  <outline>
    <contour>
      <point x="471" y="0" type="line"/>
      <point x="732" y="0" type="line"/>
      <point x="732" y="112" type="line"/>
      <point x="471" y="112" type="line"/>
    </contour>
    <contour>
      <point x="161" y="0" type="line"/>
      <point x="422" y="0" type="line"/>
      <point x="422" y="112" type="line"/>
      <point x="161" y="112" type="line"/>
    </contour>
    <contour>
      <point x="675" y="0" type="line"/>
      <point x="801" y="0" type="line"/>
      <point x="801" y="532" type="line"/>
      <point x="675" y="532" type="line"/>
    </contour>
    <contour>
      <point x="365" y="0" type="line"/>
      <point x="491" y="0" type="line"/>
      <point x="491" y="532" type="line"/>
      <point x="365" y="532" type="line"/>
    </contour>
    <contour>
      <point x="55" y="0" type="line"/>
      <point x="181" y="0" type="line"/>
      <point x="181" y="532" type="line"/>
      <point x="55" y="532" type="line"/>
    </contour>
    <contour>
      <point x="759.795" y="-170" type="line"/>
      <point x="885.795" y="-170" type="line"/>
      <point x="885.795" y="113.107" type="line"/>
      <point x="739.795" y="113.107" type="line"/>
      <point x="739.795" y="-0.455" type="line"/>
      <point x="759.795" y="-0.455" type="line"/>
    </contour>
  </outline>
</glyph>
<glyph name="ljecyr" format="2">
  <advance width="864"/>
  <unicode hex="0459"/>
  <outline>
    <contour>
      <point x="379" y="0" type="line"/>
      <point x="505" y="0" type="line"/>
      <point x="505" y="532" type="line"/>
      <point x="379" y="532" type="line"/>
    </contour>
    <contour>
      <point x="138" y="418.559" type="line"/>
      <point x="398.599" y="419.258" type="line"/>
      <point x="398.599" y="532.258" type="line"/>
      <point x="138" y="532.258" type="line"/>
    </contour>
    <contour>
      <point x="10.382" y="112.699" type="curve"/>
      <point x="10.225" y="0" type="line"/>
      <point x="126.464" y="0"/>
      <point x="192.886" y="54.451"/>
      <point x="200.342" y="155.854" type="curve" smooth="yes"/>
      <point x="228" y="532" type="line"/>
      <point x="102" y="532" type="line"/>
      <point x="75.08" y="208.962" type="line" smooth="yes"/>
      <point x="69.118" y="137.411"/>
      <point x="52.509" y="112.699"/>
    </contour>
    <contour>
      <point x="451" y="0" type="line"/>
      <point x="638" y="0" type="line" smooth="yes"/>
      <point x="747.193" y="0"/>
      <point x="818" y="67.491"/>
      <point x="818" y="171.569" type="curve" smooth="yes"/>
      <point x="818" y="256.304"/>
      <point x="765.668" y="339"/>
      <point x="633" y="339" type="curve" smooth="yes"/>
      <point x="451" y="339" type="line"/>
      <point x="451" y="227" type="line"/>
      <point x="633" y="227" type="line" smooth="yes"/>
      <point x="668.918" y="227"/>
      <point x="692" y="205.273"/>
      <point x="692" y="171.464" type="curve" smooth="yes"/>
      <point x="692" y="135.17"/>
      <point x="669.011" y="112"/>
      <point x="633" y="112" type="curve" smooth="yes"/>
      <point x="451" y="112" type="line"/>
    </contour>
  </outline>
</glyph>
<glyph name="dzhecyr" format="2">
  <advance width="583"/>
  <unicode hex="045F"/>
  <outline>
    <contour>
      <point x="402" y="0" type="line"/>
      <point x="528" y="0" type="line"/>
      <point x="528" y="532" type="line"/>
      <point x="402" y="532" type="line"/>
    </contour>
    <contour>
      <point x="55" y="0" type="line"/>
      <point x="181" y="0" type="line"/>
      <point x="181" y="532" type="line"/>
      <point x="55" y="532" type="line"/>
    </contour>
    <contour>
      <point x="161" y="-0.000119019" type="line"/>
      <point x="421.599" y="-0.301119" type="line"/>
      <point x="421.599" y="112.699" type="line"/>
      <point x="161" y="112.699" type="line"/>
    </contour>
    <contour>
      <point x="227.829" y="-170" type="line"/>
      <point x="353.829" y="-170" type="line"/>
      <point x="353.829" y="113.107" type="line"/>
      <point x="227.829" y="113.107" type="line"/>
    </contour>
  </outline>
</glyph>
<glyph name="Germandbls" format="2">
  <advance width="808"/>
  <unicode hex="1E9E"/>
  <outline>
    <contour>
      <point x="55" y="1" type="line"/>
      <point x="182" y="1" type="line"/>
      <point x="182" y="463.412" type="line" smooth="yes"/>
      <point x="182" y="554.375"/>
      <point x="231.763" y="594"/>
      <point x="346" y="594" type="curve" smooth="yes"/>
      <point x="414" y="594"/>
      <point x="464.448" y="586.945"/>
      <point x="523" y="570" type="curve"/>
      <point x="326" y="406" type="line"/>
      <point x="326" y="301" type="line"/>
      <point x="471" y="301" type="line" smooth="yes"/>
      <point x="600.669" y="301"/>
      <point x="641" y="279.885"/>
      <point x="641" y="212" type="curve" smooth="yes"/>
      <point x="641" y="154.635"/>
      <point x="580.807" y="122"/>
      <point x="475" y="122" type="curve" smooth="yes"/>
      <point x="307" y="122" type="line"/>
      <point x="307" y="-3" type="line"/>
      <point x="447" y="-3" type="line" smooth="yes"/>
      <point x="686.105" y="-3"/>
      <point x="768" y="51.597"/>
      <point x="768" y="211" type="curve" smooth="yes"/>
      <point x="768" y="361.095"/>
      <point x="669.018" y="411.915"/>
      <point x="536" y="423" type="curve"/>
      <point x="713" y="588" type="line"/>
      <point x="631.425" y="671.1"/>
      <point x="506.81" y="714"/>
      <point x="347" y="714" type="curve" smooth="yes"/>
      <point x="149.555" y="714"/>
      <point x="55" y="637.255"/>
      <point x="55" y="477" type="curve" smooth="yes"/>
    </contour>
  </outline>
</glyph>
<glyph name="quotedblleft" format="2">
  <advance width="407"/>
  <unicode hex="201C"/>
  <outline>
    <contour>
      <point x="39" y="443" type="line"/>
      <point x="159" y="443" type="line"/>
      <point x="159" y="750" type="line"/>
      <point x="39" y="648" type="line"/>
    </contour>
    <contour>
      <point x="249" y="443" type="line"/>
      <point x="369" y="443" type="line"/>
      <point x="369" y="750" type="line"/>
      <point x="249" y="648" type="line"/>
    </contour>
  </outline>
</glyph>
<glyph name="quotedblbase" format="2">
  <advance width="406"/>
  <unicode hex="201E"/>
  <outline>
    <contour>
      <point x="248" y="-166" type="line"/>
      <point x="368" y="-65" type="line"/>
      <point x="368" y="140" type="line"/>
      <point x="248" y="140" type="line"/>
    </contour>
    <contour>
      <point x="39" y="-166" type="line"/>
      <point x="159" y="-65" type="line"/>
      <point x="159" y="140" type="line"/>
      <point x="39" y="140" type="line"/>
    </contour>
  </outline>
</glyph>
<glyph name="dagger" format="2">
  <advance width="614"/>
  <unicode hex="2020"/>
  <outline>
    <contour>
      <point x="242" y="-160" type="line"/>
      <point x="376" y="-160" type="line"/>
      <point x="376" y="369" type="line"/>
      <point x="559" y="369" type="line"/>
      <point x="559" y="485" type="line"/>
      <point x="376" y="485" type="line"/>
      <point x="376" y="707" type="line"/>
      <point x="242" y="707" type="line"/>
      <point x="242" y="485" type="line"/>
      <point x="55" y="485" type="line"/>
      <point x="55" y="369" type="line"/>
      <point x="242" y="369" type="line"/>
    </contour>
  </outline>
</glyph>
<glyph name="bullet" format="2">
  <advance width="463"/>
  <unicode hex="2022"/>
  <outline>
    <contour>
      <point x="232" y="166" type="curve" smooth="yes"/>
      <point x="319.755" y="166"/>
      <point x="381" y="227.245"/>
      <point x="381" y="315" type="curve" smooth="yes"/>
      <point x="381" y="403.057"/>
      <point x="319.47" y="465"/>
      <point x="232" y="465" type="curve" smooth="yes"/>
      <point x="144.53" y="465"/>
      <point x="83" y="403.057"/>
      <point x="83" y="315" type="curve" smooth="yes"/>
      <point x="83" y="227.916"/>
      <point x="144.916" y="166"/>
    </contour>
  </outline>
</glyph>
<glyph name="minute" format="2">
  <advance width="272"/>
  <unicode hex="2032"/>
  <outline>
    <contour>
      <point x="40" y="602" type="line"/>
      <point x="155" y="602" type="line"/>
      <point x="237" y="738" type="line"/>
      <point x="85" y="738" type="line"/>
    </contour>
  </outline>
</glyph>
<glyph name="trademark" format="2">
  <advance width="914"/>
  <unicode hex="2122"/>
  <outline>
    <contour>
      <point x="159" y="303" type="line"/>
      <point x="252" y="303" type="line"/>
      <point x="252" y="624" type="line"/>
      <point x="380" y="624" type="line"/>
      <point x="380" y="707" type="line"/>
      <point x="31" y="707" type="line"/>
      <point x="31" y="624" type="line"/>
      <point x="159" y="624" type="line"/>
    </contour>
    <contour>
      <point x="437" y="303" type="line"/>
      <point x="524" y="303" type="line"/>
      <point x="524" y="529" type="line"/>
      <point x="526" y="529" type="line"/>
      <point x="614" y="361" type="line"/>
      <point x="678" y="361" type="line"/>
      <point x="764" y="529" type="line"/>
      <point x="768" y="529" type="line"/>
      <point x="768" y="303" type="line"/>
      <point x="854" y="303" type="line"/>
      <point x="854" y="707" type="line"/>
      <point x="769" y="707" type="line"/>
      <point x="649" y="466" type="line"/>
      <point x="645" y="466" type="line"/>
      <point x="523" y="707" type="line"/>
      <point x="437" y="707" type="line"/>
    </contour>
  </outline>
</glyph>
<glyph name="fi" format="2">
  <advance width="588"/>
  <unicode hex="FB01"/>
  <outline>
    <contour>
      <point x="109" y="0" type="line"/>
      <point x="234" y="0" type="line"/>
      <point x="234" y="443" type="line"/>
      <point x="349" y="443" type="line"/>
      <point x="349" y="532" type="line"/>
      <point x="234" y="532" type="line"/>
      <point x="234" y="559" type="line" smooth="yes"/>
      <point x="234" y="603.301"/>
      <point x="253.412" y="621"/>
      <point x="302" y="621" type="curve" smooth="yes"/>
      <point x="349" y="621" type="line"/>
      <point x="349" y="707" type="line"/>
      <point x="266" y="707" type="line" smooth="yes"/>
      <point x="162.009" y="707"/>
      <point x="109" y="655.342"/>
      <point x="109" y="554" type="curve" smooth="yes"/>
      <point x="109" y="532" type="line"/>
      <point x="37" y="532" type="line"/>
      <point x="37" y="443" type="line"/>
      <point x="109" y="443" type="line"/>
    </contour>
    <contour>
      <point x="402" y="0" type="line"/>
      <point x="528" y="0" type="line"/>
      <point x="528" y="532" type="line"/>
      <point x="402" y="532" type="line"/>
    </contour>
    <contour>
      <point x="402" y="608" type="line"/>
      <point x="528" y="608" type="line"/>
      <point x="528" y="710" type="line"/>
      <point x="402" y="710" type="line"/>
    </contour>
  </outline>
</glyph>
<glyph name="fl" format="2">
  <advance width="663"/>
  <unicode hex="FB02"/>
  <outline>
    <contour>
      <point x="645" y="0" type="line"/>
      <point x="645" y="110" type="line"/>
      <point x="597" y="110" type="line" smooth="yes"/>
      <point x="542.552" y="110"/>
      <point x="524" y="127.79"/>
      <point x="524" y="180" type="curve" smooth="yes"/>
      <point x="524" y="707" type="line"/>
      <point x="397" y="707" type="line"/>
      <point x="397" y="172" type="line" smooth="yes"/>
      <point x="397" y="56.827"/>
      <point x="455.479" y="0"/>
      <point x="574" y="0" type="curve" smooth="yes"/>
    </contour>
    <contour>
      <point x="109" y="0" type="line"/>
      <point x="234" y="0" type="line"/>
      <point x="234" y="443" type="line"/>
      <point x="349" y="443" type="line"/>
      <point x="349" y="532" type="line"/>
      <point x="234" y="532" type="line"/>
      <point x="234" y="559" type="line" smooth="yes"/>
      <point x="234" y="603.301"/>
      <point x="253.412" y="621"/>
      <point x="302" y="621" type="curve" smooth="yes"/>
      <point x="349" y="621" type="line"/>
      <point x="349" y="707" type="line"/>
      <point x="266" y="707" type="line" smooth="yes"/>
      <point x="162.009" y="707"/>
      <point x="109" y="655.342"/>
      <point x="109" y="554" type="curve" smooth="yes"/>
      <point x="109" y="532" type="line"/>
      <point x="37" y="532" type="line"/>
      <point x="37" y="443" type="line"/>
      <point x="109" y="443" type="line"/>
    </contour>
  </outline>
</glyph>
<glyph name="Decyr.loclBGR" format="2">
  <advance width="755"/>
  <outline>
    <component base="Elcyr.loclBGR" xOffset="20"/>
    <contour>
      <point x="409.55" y="-0.06" type="line"/>
      <point x="610" y="-0.06" type="line"/>
      <point x="610" y="-170" type="line"/>
      <point x="745" y="-170" type="line"/>
      <point x="745" y="116.93" type="line"/>
      <point x="409.55" y="116.93" type="line"/>
    </contour>
    <contour>
      <point x="289.557" y="-0.067" type="line"/>
      <point x="430" y="-0.067" type="line"/>
      <point x="430" y="116.933" type="line"/>
      <point x="289.557" y="116.933" type="line"/>
    </contour>
    <contour>
      <point x="10" y="-170" type="line"/>
      <point x="145" y="-170" type="line"/>
      <point x="145" y="-0.06" type="line"/>
      <point x="310" y="-0.06" type="line"/>
      <point x="310" y="116.93" type="line"/>
      <point x="10" y="116.92" type="line"/>
    </contour>
  </outline>
</glyph>
<glyph name="five.osf" format="2">
  <advance width="560"/>
  <outline>
    <contour>
      <point x="56" y="10" type="line"/>
      <point x="56" y="2" type="line" smooth="yes"/>
      <point x="56" y="-109.357"/>
      <point x="142.188" y="-179"/>
      <point x="280" y="-179" type="curve" smooth="yes"/>
      <point x="427.412" y="-179"/>
      <point x="514" y="-97.222"/>
      <point x="514" y="42" type="curve" smooth="yes"/>
      <point x="514" y="77" type="line" smooth="yes"/>
      <point x="514" y="213.137"/>
      <point x="438.204" y="293"/>
      <point x="309" y="293" type="curve" smooth="yes"/>
      <point x="259.667" y="293"/>
      <point x="218" y="280.333"/>
      <point x="184" y="255" type="curve"/>
      <point x="184" y="418" type="line"/>
      <point x="493" y="418" type="line"/>
      <point x="493" y="533" type="line"/>
      <point x="69" y="533" type="line"/>
      <point x="69" y="132" type="line"/>
      <point x="186" y="132" type="line"/>
      <point x="203.687" y="164.653"/>
      <point x="237.863" y="183"/>
      <point x="281" y="183" type="curve" smooth="yes"/>
      <point x="346.423" y="183"/>
      <point x="382" y="143.901"/>
      <point x="382" y="72" type="curve" smooth="yes"/>
      <point x="382" y="44" type="line" smooth="yes"/>
      <point x="382" y="-26.97"/>
      <point x="346.164" y="-66"/>
      <point x="281" y="-66" type="curve" smooth="yes"/>
      <point x="222.926" y="-66"/>
      <point x="184" y="-37.107"/>
      <point x="184" y="6" type="curve" smooth="yes"/>
      <point x="184" y="10" type="line"/>
    </contour>
  </outline>
</glyph>
<glyph name="four.dnom" format="2">
  <advance width="399"/>
  <outline>
    <contour>
      <point x="30" y="58" type="line"/>
      <point x="236" y="58" type="line"/>
      <point x="236" y="0" type="line"/>
      <point x="341" y="0" type="line"/>
      <point x="341" y="58" type="line"/>
      <point x="369" y="58" type="line"/>
      <point x="369" y="150" type="line"/>
      <point x="341" y="150" type="line"/>
      <point x="341" y="240" type="line"/>
      <point x="236" y="240" type="line"/>
      <point x="236" y="150" type="line"/>
      <point x="135" y="150" type="line"/>
      <point x="253" y="429" type="line"/>
      <point x="147" y="429" type="line"/>
      <point x="30" y="150" type="line"/>
    </contour>
  </outline>
</glyph>
<glyph name="four.numr" format="2">
  <advance width="399"/>
  <outline>
    <contour>
      <point x="30" y="338" type="line"/>
      <point x="236" y="338" type="line"/>
      <point x="236" y="280" type="line"/>
      <point x="341" y="280" type="line"/>
      <point x="341" y="338" type="line"/>
      <point x="369" y="338" type="line"/>
      <point x="369" y="430" type="line"/>
      <point x="341" y="430" type="line"/>
      <point x="341" y="520" type="line"/>
      <point x="236" y="520" type="line"/>
      <point x="236" y="430" type="line"/>
      <point x="135" y="430" type="line"/>
      <point x="253" y="709" type="line"/>
      <point x="147" y="709" type="line"/>
      <point x="30" y="430" type="line"/>
    </contour>
  </outline>
</glyph>
<glyph name="four.osf" format="2">
  <advance width="590"/>
  <outline>
    <contour>
      <point x="40" y="0" type="line"/>
      <point x="360" y="0" type="line"/>
      <point x="360" y="-168" type="line"/>
      <point x="495" y="-168" type="line"/>
      <point x="495" y="0" type="line"/>
      <point x="559" y="0" type="line"/>
      <point x="559" y="117" type="line"/>
      <point x="495" y="117" type="line"/>
      <point x="495" y="254" type="line"/>
      <point x="360" y="254" type="line"/>
      <point x="360" y="117" type="line"/>
      <point x="176" y="117" type="line"/>
      <point x="403" y="543" type="line"/>
      <point x="266" y="543" type="line"/>
      <point x="40" y="117" type="line"/>
    </contour>
  </outline>
</glyph>
<glyph name="icyr.loclBGR" format="2">
  <advance width="585"/>
  <anchor x="293" y="602" name="top"/>
  <outline>
    <contour>
      <point x="404" y="272" type="line"/>
      <point x="404" y="229" type="line" smooth="yes"/>
      <point x="404" y="142.97"/>
      <point x="368.707" y="104"/>
      <point x="293" y="104" type="curve" smooth="yes"/>
      <point x="217.555" y="104"/>
      <point x="181" y="144.039"/>
      <point x="181" y="229" type="curve" smooth="yes"/>
      <point x="181" y="532" type="line"/>
      <point x="55" y="532" type="line"/>
      <point x="55" y="223" type="line" smooth="yes"/>
      <point x="55" y="70.313"/>
      <point x="124.92" y="-9"/>
      <point x="259.523" y="-9" type="curve" smooth="yes"/>
      <point x="382.754" y="-9"/>
      <point x="446" y="78.961"/>
      <point x="446" y="250.35" type="curve" smooth="yes"/>
      <point x="446" y="272" type="line"/>
    </contour>
    <contour>
      <point x="408" y="0" type="line"/>
      <point x="530" y="0" type="line"/>
      <point x="530" y="532" type="line"/>
      <point x="404" y="532" type="line"/>
      <point x="404" y="64.815" type="line"/>
      <point x="408" y="64.815" type="line"/>
    </contour>
  </outline>
</glyph>
<glyph name="nacute.loclPLK" format="2">
  <advance width="585"/>
  <outline>
    <component base="n"/>
    <contour>
      <point x="244" y="602" type="line"/>
      <point x="359" y="602" type="line"/>
      <point x="441" y="738" type="line"/>
      <point x="289" y="738" type="line"/>
    </contour>
  </outline>
</glyph>
<glyph name="one.dnom" format="2">
  <advance width="258"/>
  <outline>
    <contour>
      <point x="103" y="0" type="line"/>
      <point x="208" y="0" type="line"/>
      <point x="208" y="429" type="line"/>
      <point x="103" y="429" type="line"/>
      <point x="12" y="378" type="line"/>
      <point x="12" y="270" type="line"/>
      <point x="103" y="320" type="line"/>
    </contour>
  </outline>
</glyph>
<glyph name="one.numr" format="2">
  <advance width="259"/>
  <outline>
    <contour>
      <point x="103.57" y="279.671" type="line"/>
      <point x="208.57" y="279.671" type="line"/>
      <point x="208.57" y="708.671" type="line"/>
      <point x="103.57" y="708.671" type="line"/>
      <point x="12.57" y="657.671" type="line"/>
      <point x="12.57" y="549.671" type="line"/>
      <point x="103.57" y="599.671" type="line"/>
    </contour>
  </outline>
</glyph>
<glyph name="sacute.loclPLK" format="2">
  <advance width="538"/>
  <outline>
    <component base="s"/>
    <contour>
      <point x="221" y="602" type="line"/>
      <point x="336" y="602" type="line"/>
      <point x="418" y="738" type="line"/>
      <point x="266" y="738" type="line"/>
    </contour>
  </outline>
</glyph>
<glyph name="seven.osf" format="2">
  <advance width="519"/>
  <outline>
    <contour>
      <point x="106" y="-168" type="line"/>
      <point x="243" y="-168" type="line"/>
      <point x="492" y="416" type="line"/>
      <point x="492" y="533" type="line"/>
      <point x="34" y="533" type="line"/>
      <point x="34" y="416" type="line"/>
      <point x="357" y="416" type="line"/>
    </contour>
  </outline>
</glyph>
<glyph name="three.osf" format="2">
  <advance width="568"/>
  <outline>
    <contour>
      <point x="51" y="25" type="line"/>
      <point x="51" y="14" type="line" smooth="yes"/>
      <point x="51" y="-102.227"/>
      <point x="135.927" y="-168"/>
      <point x="286" y="-168" type="curve" smooth="yes"/>
      <point x="430.423" y="-168"/>
      <point x="522" y="-91.557"/>
      <point x="522" y="29" type="curve" smooth="yes"/>
      <point x="522" y="44" type="line" smooth="yes"/>
      <point x="522" y="130.655"/>
      <point x="485.136" y="186.621"/>
      <point x="412" y="211" type="curve"/>
      <point x="475.637" y="238.841"/>
      <point x="510" y="288.633"/>
      <point x="510" y="353" type="curve" smooth="yes"/>
      <point x="510" y="369" type="line" smooth="yes"/>
      <point x="510" y="476.856"/>
      <point x="424.522" y="542"/>
      <point x="283" y="542" type="curve" smooth="yes"/>
      <point x="137.43" y="542"/>
      <point x="57" y="475.805"/>
      <point x="57" y="356" type="curve" smooth="yes"/>
      <point x="57" y="348" type="line"/>
      <point x="180" y="348" type="line"/>
      <point x="180" y="356" type="line" smooth="yes"/>
      <point x="180" y="406.613"/>
      <point x="215.932" y="435"/>
      <point x="280" y="435" type="curve" smooth="yes"/>
      <point x="342.367" y="435"/>
      <point x="378" y="405.912"/>
      <point x="378" y="355" type="curve" smooth="yes"/>
      <point x="378" y="341" type="line" smooth="yes"/>
      <point x="378" y="285.48"/>
      <point x="339.284" y="254"/>
      <point x="271" y="254" type="curve" smooth="yes"/>
      <point x="232" y="254" type="line"/>
      <point x="232" y="144" type="line"/>
      <point x="272" y="144" type="line" smooth="yes"/>
      <point x="354.48" y="144"/>
      <point x="390" y="113.898"/>
      <point x="390" y="44" type="curve" smooth="yes"/>
      <point x="390" y="30" type="line" smooth="yes"/>
      <point x="390" y="-27.855"/>
      <point x="351.392" y="-61"/>
      <point x="284" y="-61" type="curve" smooth="yes"/>
      <point x="213.59" y="-61"/>
      <point x="176" y="-33.852"/>
      <point x="176" y="17" type="curve" smooth="yes"/>
      <point x="176" y="25" type="line"/>
    </contour>
  </outline>
</glyph>
<glyph name="three.tlf" format="2">
  <advance width="562"/>
  <outline>
    <contour>
      <point x="46" y="193" type="line"/>
      <point x="46" y="181" type="line" smooth="yes"/>
      <point x="46" y="58.333"/>
      <point x="130.86" y="-11"/>
      <point x="281" y="-11" type="curve" smooth="yes"/>
      <point x="425.741" y="-11"/>
      <point x="517" y="69.432"/>
      <point x="517" y="197" type="curve" smooth="yes"/>
      <point x="517" y="213" type="line" smooth="yes"/>
      <point x="517" y="294.345"/>
      <point x="477.828" y="352.39"/>
      <point x="407" y="376" type="curve"/>
      <point x="470.657" y="403.85"/>
      <point x="505" y="454.313"/>
      <point x="505" y="520" type="curve" smooth="yes"/>
      <point x="505" y="534" type="line" smooth="yes"/>
      <point x="505" y="648.614"/>
      <point x="419.399" y="718"/>
      <point x="278" y="718" type="curve" smooth="yes"/>
      <point x="132.677" y="718"/>
      <point x="52" y="647.676"/>
      <point x="52" y="521" type="curve" smooth="yes"/>
      <point x="52" y="512" type="line"/>
      <point x="175" y="512" type="line"/>
      <point x="175" y="521" type="line" smooth="yes"/>
      <point x="175" y="574.227"/>
      <point x="210.871" y="604"/>
      <point x="275" y="604" type="curve" smooth="yes"/>
      <point x="337.444" y="604"/>
      <point x="373" y="573.524"/>
      <point x="373" y="520" type="curve" smooth="yes"/>
      <point x="373" y="508" type="line" smooth="yes"/>
      <point x="373" y="451.813"/>
      <point x="335.103" y="421"/>
      <point x="266" y="421" type="curve" smooth="yes"/>
      <point x="227" y="421" type="line"/>
      <point x="227" y="307" type="line"/>
      <point x="267" y="307" type="line" smooth="yes"/>
      <point x="347.17" y="307"/>
      <point x="385" y="276.864"/>
      <point x="385" y="213" type="curve" smooth="yes"/>
      <point x="385" y="198" type="line" smooth="yes"/>
      <point x="385" y="137.208"/>
      <point x="346.125" y="102"/>
      <point x="279" y="102" type="curve" smooth="yes"/>
      <point x="208.545" y="102"/>
      <point x="171" y="130.506"/>
      <point x="171" y="184" type="curve" smooth="yes"/>
      <point x="171" y="193" type="line"/>
    </contour>
  </outline>
</glyph>
<glyph name="three.tosf" format="2">
  <advance width="562"/>
  <outline>
    <contour>
      <point x="46" y="25" type="line"/>
      <point x="46" y="14" type="line" smooth="yes"/>
      <point x="46" y="-102.227"/>
      <point x="130.927" y="-168"/>
      <point x="281" y="-168" type="curve" smooth="yes"/>
      <point x="425.423" y="-168"/>
      <point x="517" y="-91.557"/>
      <point x="517" y="29" type="curve" smooth="yes"/>
      <point x="517" y="44" type="line" smooth="yes"/>
      <point x="517" y="130.655"/>
      <point x="480.136" y="186.621"/>
      <point x="407" y="211" type="curve"/>
      <point x="470.637" y="238.841"/>
      <point x="505" y="288.633"/>
      <point x="505" y="353" type="curve" smooth="yes"/>
      <point x="505" y="369" type="line" smooth="yes"/>
      <point x="505" y="476.856"/>
      <point x="419.522" y="542"/>
      <point x="278" y="542" type="curve" smooth="yes"/>
      <point x="132.43" y="542"/>
      <point x="52" y="475.805"/>
      <point x="52" y="356" type="curve" smooth="yes"/>
      <point x="52" y="348" type="line"/>
      <point x="175" y="348" type="line"/>
      <point x="175" y="356" type="line" smooth="yes"/>
      <point x="175" y="406.613"/>
      <point x="210.932" y="435"/>
      <point x="275" y="435" type="curve" smooth="yes"/>
      <point x="337.367" y="435"/>
      <point x="373" y="405.912"/>
      <point x="373" y="355" type="curve" smooth="yes"/>
      <point x="373" y="341" type="line" smooth="yes"/>
      <point x="373" y="285.48"/>
      <point x="334.284" y="254"/>
      <point x="266" y="254" type="curve" smooth="yes"/>
      <point x="227" y="254" type="line"/>
      <point x="227" y="144" type="line"/>
      <point x="267" y="144" type="line" smooth="yes"/>
      <point x="349.48" y="144"/>
      <point x="385" y="113.898"/>
      <point x="385" y="44" type="curve" smooth="yes"/>
      <point x="385" y="30" type="line" smooth="yes"/>
      <point x="385" y="-27.855"/>
      <point x="346.392" y="-61"/>
      <point x="279" y="-61" type="curve" smooth="yes"/>
      <point x="208.59" y="-61"/>
      <point x="171" y="-33.852"/>
      <point x="171" y="17" type="curve" smooth="yes"/>
      <point x="171" y="25" type="line"/>
    </contour>
  </outline>
</glyph>
<glyph name="two.dnom" format="2">
  <advance width="368"/>
  <outline>
    <contour>
      <point x="26.661" y="0" type="line"/>
      <point x="327.661" y="0" type="line"/>
      <point x="327.661" y="91" type="line"/>
      <point x="175.661" y="91" type="line"/>
      <point x="257.661" y="176" type="line" smooth="yes"/>
      <point x="307.014" y="227.159"/>
      <point x="327.661" y="254.495"/>
      <point x="327.661" y="303" type="curve" smooth="yes"/>
      <point x="327.661" y="312" type="line" smooth="yes"/>
      <point x="327.661" y="387.592"/>
      <point x="267.581" y="437"/>
      <point x="175.661" y="437" type="curve" smooth="yes"/>
      <point x="80.042" y="437"/>
      <point x="22.661" y="389.745"/>
      <point x="22.661" y="311" type="curve" smooth="yes"/>
      <point x="22.661" y="301" type="line"/>
      <point x="123.661" y="301" type="line"/>
      <point x="123.661" y="308" type="line" smooth="yes"/>
      <point x="123.661" y="333.728"/>
      <point x="141.145" y="348"/>
      <point x="172.661" y="348" type="curve" smooth="yes"/>
      <point x="204.661" y="348"/>
      <point x="220.661" y="334"/>
      <point x="220.661" y="306" type="curve" smooth="yes"/>
      <point x="220.661" y="300" type="line" smooth="yes"/>
      <point x="220.661" y="281.241"/>
      <point x="208.505" y="264.994"/>
      <point x="184.661" y="241" type="curve" smooth="yes"/>
      <point x="26.661" y="82" type="line"/>
    </contour>
  </outline>
</glyph>
<glyph name="two.sups" format="2">
  <advance width="368"/>
  <outline>
    <contour>
      <point x="26.661" y="440" type="line"/>
      <point x="327.661" y="440" type="line"/>
      <point x="327.661" y="531" type="line"/>
      <point x="175.661" y="531" type="line"/>
      <point x="257.661" y="616" type="line" smooth="yes"/>
      <point x="307.014" y="667.159"/>
      <point x="327.661" y="694.495"/>
      <point x="327.661" y="743" type="curve" smooth="yes"/>
      <point x="327.661" y="752" type="line" smooth="yes"/>
      <point x="327.661" y="827.592"/>
      <point x="267.581" y="877"/>
      <point x="175.661" y="877" type="curve" smooth="yes"/>
      <point x="80.042" y="877"/>
      <point x="22.661" y="829.745"/>
      <point x="22.661" y="751" type="curve" smooth="yes"/>
      <point x="22.661" y="741" type="line"/>
      <point x="123.661" y="741" type="line"/>
      <point x="123.661" y="748" type="line" smooth="yes"/>
      <point x="123.661" y="773.728"/>
      <point x="141.145" y="788"/>
      <point x="172.661" y="788" type="curve" smooth="yes"/>
      <point x="204.661" y="788"/>
      <point x="220.661" y="774"/>
      <point x="220.661" y="746" type="curve" smooth="yes"/>
      <point x="220.661" y="740" type="line" smooth="yes"/>
      <point x="220.661" y="721.241"/>
      <point x="208.505" y="704.994"/>
      <point x="184.661" y="681" type="curve" smooth="yes"/>
      <point x="26.661" y="522" type="line"/>
    </contour>
  </outline>
</glyph>
<glyph name="uni030A0301" format="2">
  <anchor x="0" y="591" name="_t.ring"/>
  <outline>
    <contour>
      <point x="-105.5" y="696" type="curve" smooth="yes"/>
      <point x="-105.5" y="635.941"/>
      <point x="-60.13" y="591"/>
      <point x="0.5" y="591" type="curve" smooth="yes"/>
      <point x="60.5" y="591"/>
      <point x="105.5" y="636"/>
      <point x="105.5" y="696" type="curve" smooth="yes"/>
      <point x="105.5" y="757.238"/>
      <point x="60.593" y="803"/>
      <point x="0.5" y="803" type="curve" smooth="yes"/>
      <point x="-59.88" y="803"/>
      <point x="-105.5" y="756.95"/>
    </contour>
    <contour>
      <point x="0.5" y="647" type="curve" smooth="yes"/>
      <point x="-25.622" y="647"/>
      <point x="-46.5" y="668.766"/>
      <point x="-46.5" y="696" type="curve" smooth="yes"/>
      <point x="-46.5" y="724.851"/>
      <point x="-26.62" y="746"/>
      <point x="0.5" y="746" type="curve" smooth="yes"/>
      <point x="27.913" y="746"/>
      <point x="48.5" y="724.556"/>
      <point x="48.5" y="696" type="curve" smooth="yes"/>
      <point x="48.5" y="668.908"/>
      <point x="27.039" y="647"/>
    </contour>
    <contour>
      <point x="-58.059" y="833.995" type="line"/>
      <point x="51.941" y="833.995" type="line"/>
      <point x="166.066" y="937" type="line"/>
      <point x="26.066" y="937" type="line"/>
    </contour>
  </outline>
</glyph>
<glyph name="vecyr.loclBGR" format="2">
  <advance width="583"/>
  <outline>
    <contour>
      <point x="55" y="214.015" type="line"/>
      <point x="55" y="81.975"/>
      <point x="155.887" y="-9"/>
      <point x="302.313" y="-9" type="curve" smooth="yes"/>
      <point x="439.234" y="-9"/>
      <point x="528" y="98.939"/>
      <point x="528" y="229.678" type="curve" smooth="yes"/>
      <point x="528" y="299.634"/>
      <point x="489.405" y="359.334"/>
      <point x="425" y="389" type="curve"/>
      <point x="425" y="392" type="line"/>
      <point x="470.287" y="421.192"/>
      <point x="498" y="471.103"/>
      <point x="498" y="523.473" type="curve" smooth="yes"/>
      <point x="498" y="633.281"/>
      <point x="413.435" y="707"/>
      <point x="280.82" y="707" type="curve" smooth="yes"/>
      <point x="148.03" y="707"/>
      <point x="55" y="616.507"/>
      <point x="55" y="480.929" type="curve"/>
      <point x="181" y="480.929" type="line"/>
      <point x="181" y="549.667"/>
      <point x="219.738" y="594"/>
      <point x="279.801" y="594" type="curve" smooth="yes"/>
      <point x="335.102" y="594"/>
      <point x="372" y="558.246"/>
      <point x="372" y="504.66" type="curve" smooth="yes"/>
      <point x="372" y="458.111"/>
      <point x="337.837" y="427"/>
      <point x="286.72" y="427" type="curve" smooth="yes"/>
      <point x="161" y="427" type="line"/>
      <point x="161" y="339" type="line"/>
      <point x="291.735" y="339" type="line" smooth="yes"/>
      <point x="352.488" y="339"/>
      <point x="402" y="294.634"/>
      <point x="402" y="222.793" type="curve" smooth="yes"/>
      <point x="402" y="152.45"/>
      <point x="360.978" y="103"/>
      <point x="297.313" y="103" type="curve" smooth="yes"/>
      <point x="227.981" y="103"/>
      <point x="181" y="147.841"/>
      <point x="181" y="214.015" type="curve"/>
    </contour>
    <contour>
      <point x="55" y="214.015" type="line"/>
      <point x="181" y="214.015" type="line"/>
      <point x="181" y="480.929" type="line"/>
      <point x="55" y="480.929" type="line"/>
    </contour>
  </outline>
</glyph>
<glyph name="zero.dnom" format="2">
  <advance width="415"/>
  <outline>
    <contour>
      <point x="40" y="149.899" type="line" smooth="yes"/>
      <point x="40" y="49.978"/>
      <point x="93.76" y="-7"/>
      <point x="208.109" y="-7" type="curve" smooth="yes"/>
      <point x="321.196" y="-7"/>
      <point x="375" y="50.359"/>
      <point x="375" y="149.899" type="curve" smooth="yes"/>
      <point x="375" y="286.219" type="line" smooth="yes"/>
      <point x="375" y="380.418"/>
      <point x="321.112" y="435"/>
      <point x="208.109" y="435" type="curve" smooth="yes"/>
      <point x="96.779" y="435"/>
      <point x="40" y="378.351"/>
      <point x="40" y="286.219" type="curve" smooth="yes"/>
    </contour>
    <contour>
      <point x="208.462" y="84" type="curve" smooth="yes"/>
      <point x="162.885" y="84"/>
      <point x="145" y="109.277"/>
      <point x="145" y="148.206" type="curve" smooth="yes"/>
      <point x="145" y="281.24" type="line" smooth="yes"/>
      <point x="145" y="319.692"/>
      <point x="163.475" y="345"/>
      <point x="208.462" y="345" type="curve" smooth="yes"/>
      <point x="253.05" y="345"/>
      <point x="270" y="320.542"/>
      <point x="270" y="281.24" type="curve" smooth="yes"/>
      <point x="270" y="148.206" type="line" smooth="yes"/>
      <point x="270" y="108.054"/>
      <point x="254.044" y="84"/>
    </contour>
  </outline>
</glyph>
<glyph name="zero.numr" format="2">
  <advance width="416"/>
  <outline>
    <contour>
      <point x="40.369" y="429.938" type="line" smooth="yes"/>
      <point x="40.369" y="330.016"/>
      <point x="94.13" y="273.039"/>
      <point x="208.479" y="273.039" type="curve" smooth="yes"/>
      <point x="321.565" y="273.039"/>
      <point x="375.369" y="330.398"/>
      <point x="375.369" y="429.938" type="curve" smooth="yes"/>
      <point x="375.369" y="566.257" type="line" smooth="yes"/>
      <point x="375.369" y="660.456"/>
      <point x="321.481" y="715.039"/>
      <point x="208.479" y="715.039" type="curve" smooth="yes"/>
      <point x="97.148" y="715.039"/>
      <point x="40.369" y="658.389"/>
      <point x="40.369" y="566.257" type="curve" smooth="yes"/>
    </contour>
    <contour>
      <point x="208.831" y="364.039" type="curve" smooth="yes"/>
      <point x="163.255" y="364.039"/>
      <point x="145.369" y="389.315"/>
      <point x="145.369" y="428.245" type="curve" smooth="yes"/>
      <point x="145.369" y="561.279" type="line" smooth="yes"/>
      <point x="145.369" y="599.73"/>
      <point x="163.845" y="625.039"/>
      <point x="208.831" y="625.039" type="curve" smooth="yes"/>
      <point x="253.419" y="625.039"/>
      <point x="270.369" y="600.581"/>
      <point x="270.369" y="561.279" type="curve" smooth="yes"/>
      <point x="270.369" y="428.245" type="line" smooth="yes"/>
      <point x="270.369" y="388.093"/>
      <point x="254.414" y="364.039"/>
    </contour>
  </outline>
</glyph>
<glyph name="zero.osf" format="2">
  <advance width="577"/>
  <outline>
    <contour>
      <point x="51" y="228" type="line" smooth="yes"/>
      <point x="51" y="69.333"/>
      <point x="130.333" y="-10"/>
      <point x="289" y="-10" type="curve" smooth="yes"/>
      <point x="446.669" y="-10"/>
      <point x="526" y="69.665"/>
      <point x="526" y="228" type="curve" smooth="yes"/>
      <point x="526" y="310" type="line" smooth="yes"/>
      <point x="526" y="463.325"/>
      <point x="446.307" y="541"/>
      <point x="289" y="541" type="curve" smooth="yes"/>
      <point x="132.697" y="541"/>
      <point x="51" y="461.706"/>
      <point x="51" y="310" type="curve" smooth="yes"/>
    </contour>
    <contour>
      <point x="186" y="208" type="curve" smooth="yes"/>
      <point x="186" y="322" type="line" smooth="yes"/>
      <point x="186" y="386.979"/>
      <point x="222.734" y="423"/>
      <point x="289" y="423" type="curve" smooth="yes"/>
      <point x="355.266" y="423"/>
      <point x="392" y="386.979"/>
      <point x="392" y="322" type="curve" smooth="yes"/>
      <point x="392" y="208" type="line" smooth="yes"/>
      <point x="392" y="142.507"/>
      <point x="355.135" y="106"/>
      <point x="289" y="106" type="curve" smooth="yes"/>
      <point x="222.981" y="106"/>
      <point x="186" y="142.622"/>
    </contour>
  </outline>
</glyph>
